<?xml version="1.0" encoding="UTF-8" standalone="no"?><!DOCTYPE svg PUBLIC "-//W3C//DTD SVG 1.1//EN" "http://www.w3.org/Graphics/SVG/1.1/DTD/svg11.dtd"><svg width="100%" height="100%" viewBox="0 0 200 200" version="1.1" xmlns="http://www.w3.org/2000/svg" xmlns:xlink="http://www.w3.org/1999/xlink" xml:space="preserve" xmlns:serif="http://www.serif.com/" style="fill-rule:evenodd;clip-rule:evenodd;stroke-linejoin:round;stroke-miterlimit:2;"><g id="Ebene-1" serif:id="Ebene 1"><path id="path4" d="M0.513,80.265l-0.008,-0.212l0,-64.201c0,-8.785 7.076,-15.853 15.861,-15.853l167.261,0c8.785,0 15.861,7.068 15.861,15.853l0,64.201c0,8.785 -7.076,15.853 -15.861,15.853l-167.261,0c-8.714,0 -15.741,-6.955 -15.853,-15.641Zm158.317,9.074l0,-70.589l-117.651,0l0,70.589l117.651,0Zm-158.317,94.808l0,-64.412c0.113,-8.686 7.139,-15.641 15.853,-15.641l167.261,0c8.785,0 15.861,7.068 15.861,15.853l0,64.201c0,8.785 -7.076,15.853 -15.861,15.853l-167.261,0c-8.785,0 -15.853,-7.068 -15.853,-15.853Zm146.419,4.085l0,-70.841l-93.864,0l-0,70.841l93.864,0Zm-120.604,-62.101c-5.962,0.003 -10.867,4.91 -10.866,10.872c-0.002,5.962 4.904,10.869 10.866,10.872c5.963,0 10.871,-4.91 10.871,-10.872c0,-5.963 -4.908,-10.872 -10.871,-10.872Z"/></g></svg>