<?xml version="1.0" encoding="UTF-8" standalone="no"?><!DOCTYPE svg PUBLIC "-//W3C//DTD SVG 1.1//EN" "http://www.w3.org/Graphics/SVG/1.1/DTD/svg11.dtd"><svg width="100%" height="100%" viewBox="0 0 834 834" version="1.1" xmlns="http://www.w3.org/2000/svg" xmlns:xlink="http://www.w3.org/1999/xlink" xml:space="preserve" xmlns:serif="http://www.serif.com/" style="fill-rule:evenodd;clip-rule:evenodd;stroke-linejoin:round;stroke-miterlimit:2;"><g id="Ebene-1" serif:id="Ebene 1"><g><path d="M756.601,567.858c0,41.977 -34.017,76.015 -76,76.015l-527.869,0c-41.984,0 -76.014,-34.038 -76.014,-76.015l0,-284.703c0,-41.983 34.03,-76.007 76.014,-76.007l527.869,0c41.984,0 76,34.025 76,76.007l0,284.703Zm-743.855,-442.7l0,583.018l807.841,0l0,-583.018l-807.841,0Z" style="fill-rule:nonzero;"/><rect x="195.738" y="550.065" width="33.346" height="33.346" style="fill-rule:nonzero;"/><rect x="297.174" y="550.065" width="33.339" height="33.346" style="fill-rule:nonzero;"/><rect x="263.82" y="583.411" width="33.354" height="33.346" style="fill-rule:nonzero;"/><rect x="297.174" y="283.283" width="33.339" height="33.346" style="fill-rule:nonzero;"/><rect x="263.82" y="249.936" width="33.354" height="33.347" style="fill-rule:nonzero;"/><rect x="229.084" y="450.023" width="33.349" height="66.695" style="fill-rule:nonzero;"/><rect x="195.738" y="516.718" width="33.346" height="33.347" style="fill-rule:nonzero;"/><rect x="604.249" y="550.065" width="33.339" height="33.346" style="fill-rule:nonzero;"/><rect x="502.806" y="550.065" width="33.353" height="33.346" style="fill-rule:nonzero;"/><rect x="536.159" y="583.411" width="33.342" height="33.346" style="fill-rule:nonzero;"/><rect x="502.806" y="283.283" width="33.353" height="33.346" style="fill-rule:nonzero;"/><rect x="536.159" y="249.936" width="33.342" height="33.347" style="fill-rule:nonzero;"/><rect x="570.894" y="450.023" width="33.355" height="66.695" style="fill-rule:nonzero;"/><rect x="330.513" y="516.718" width="72.702" height="33.347" style="fill-rule:nonzero;"/><rect x="430.111" y="516.718" width="72.695" height="33.347" style="fill-rule:nonzero;"/><path d="M500.014,416.866l-33.353,0l0,-33.34l33.353,0l0,33.34Zm-135.55,0l-33.354,0l0,-33.34l33.354,0l0,33.34Zm239.785,-0.195l-36.511,0l0,-33.349l-31.58,0l0,-33.338l-33.353,0l0,-33.355l-33.342,0l0,33.355l-105.597,0l0,-33.355l-33.354,0l0,33.355l-33.339,0l0,33.338l-31.58,0l0,33.349l-36.511,0l0,33.353l68.09,0l0,66.695l33.339,0l0,-33.347l172.293,0l0,33.347l33.353,0l0,-66.695l68.09,0l0,-33.353Z" style="fill-rule:nonzero;"/><rect x="604.249" y="516.718" width="33.339" height="33.347" style="fill-rule:nonzero;"/></g></g></svg>