<?xml version="1.0" encoding="UTF-8" standalone="no"?>
<svg
   height="24px"
   viewBox="0 -960 960 960"
   width="24px"
   fill="#e3e3e3"
   version="1.1"
   id="svg1"
   sodipodi:docname="buttons_nintendo.svg"
   inkscape:version="1.4.2 (ebf0e940, 2025-05-08)"
   xmlns:inkscape="http://www.inkscape.org/namespaces/inkscape"
   xmlns:sodipodi="http://sodipodi.sourceforge.net/DTD/sodipodi-0.dtd"
   xmlns="http://www.w3.org/2000/svg"
   xmlns:svg="http://www.w3.org/2000/svg">
  <defs
     id="defs1" />
  <sodipodi:namedview
     id="namedview1"
     pagecolor="#505050"
     bordercolor="#eeeeee"
     borderopacity="1"
     inkscape:showpageshadow="0"
     inkscape:pageopacity="0"
     inkscape:pagecheckerboard="0"
     inkscape:deskcolor="#505050"
     inkscape:zoom="27.139834"
     inkscape:cx="8.3825124"
     inkscape:cy="12.232941"
     inkscape:window-width="2560"
     inkscape:window-height="1319"
     inkscape:window-x="1440"
     inkscape:window-y="30"
     inkscape:window-maximized="1"
     inkscape:current-layer="svg1" />
  <path
     d="m 710.70648,-522.82059 19.06251,55.625 h -38.12501 z"
     style="baseline-shift:baseline;display:inline;overflow:visible;vector-effect:none;fill:#000000;enable-background:accumulate;stop-color:#000000;stop-opacity:1"
     id="path17" />
  <path
     d="m 710.08148,-609.92996 c 33.37452,-10e-6 66.75557,12.61493 92.03125,37.89063 50.55136,50.55136 50.55136,133.51112 0,184.06249 -50.55137,50.55136 -133.51113,50.55136 -184.06249,0 -50.55136,-50.55137 -50.55138,-133.51113 0,-184.06249 25.27568,-25.2757 58.65673,-37.89064 92.03124,-37.89063 z m 23.125,47.42187 h -46.01561 l -9.60938,26.01562 -28.90625,78.28125 v 0.0781 l -14.60937,39.37501 -4.14064,11.32812 14.92189,-1e-5 26.40624,1e-5 5.62501,-16.56251 5.07811,-14.76562 h 57.5 l 4.84375,14.14062 5.9375,17.1875 25.07813,1e-5 h 15.23438 l -4.29687,-11.56251 -14.60939,-39.53125 -28.75,-77.73437 z"
     style="baseline-shift:baseline;display:inline;overflow:visible;vector-effect:none;fill:#000000;enable-background:accumulate;stop-color:#000000;stop-opacity:1"
     id="path16" />
  <path
     d="m 249.92522,-609.92997 c 33.37451,0 66.75557,12.61495 92.03125,37.89063 50.55136,50.55136 50.55138,133.51113 10e-6,184.0625 -50.55136,50.55136 -133.51115,50.55136 -184.06251,0 -50.55135,-50.55137 -50.55135,-133.51114 1e-5,-184.0625 25.27567,-25.27569 58.65674,-37.89063 92.03124,-37.89063 z m 78.20314,54.92188 h -15.78125 -29.6875 l -8.125,14.60937 -25.39064,45.39063 -24.375,-45.15624 -8.04687,-14.84376 h -29.21874 -14.6875 l 5.31249,8.90625 17.89062,29.60938 33.98438,56.56249 v 42.03125 17.96876 l 40.00001,-1e-5 -10e-6,-17.96875 10e-6,-40.15625 34.45311,-57.5 17.89064,-29.84375 z"
     style="baseline-shift:baseline;display:inline;overflow:visible;vector-effect:none;fill:#000000;enable-background:accumulate;stop-color:#000000;stop-opacity:1"
     id="path14" />
  <path
     d="m 480.00335,-840.00809 c 33.3745,1e-5 66.75556,12.61494 92.03125,37.89063 50.55136,50.55136 50.55136,133.51112 0,184.06249 -50.55137,50.55136 -133.51113,50.55136 -184.06249,0 -50.55138,-50.55136 -50.55137,-133.51114 0,-184.06249 25.27568,-25.27568 58.65673,-37.89064 92.03124,-37.89063 z m 77.42187,51.17187 h -19.76561 -26.40625 l -11.17189,16.71876 -21.09375,31.56249 -21.25,-30.85937 -11.95312,-17.42188 h -23.4375 -20.85937 l 8.04688,11.17188 19.45311,27.10937 26.64064,37.10938 -28.51563,41.32812 -19.21875,27.89063 -7.26563,10.46876 h 18.51562 l 27.73438,-1e-5 10.07812,-15.3125 23.35938,-35.70313 23.59376,35.3125 10.46874,15.70313 h 26.40626 17.8125 l -7.03125,-9.92187 -19.37501,-27.57812 -28.59375,-40.62501 27.1875,-38.90625 19.14062,-27.34375 z"
     style="baseline-shift:baseline;display:inline;overflow:visible;vector-effect:none;fill:#000000;enable-background:accumulate;stop-color:#000000;stop-opacity:1"
     id="path15" />
  <path
     d="m 462.34711,-240.39873 v 38.59375 l 2.96875,1e-5 c 11.24999,-1e-5 19.27953,-0.009 24.14062,-0.0781 4.86111,-0.0694 9.34029,-0.99827 13.43751,-2.73438 4.16665,-1.73611 6.98785,-4.02777 8.51562,-6.875 1.59721,-2.91666 2.42188,-6.25001 2.42188,-9.99999 0,-4.93056 -0.94619,-8.68925 -2.89063,-11.32813 -1.875,-2.70833 -5.10418,-4.69618 -9.6875,-6.01563 -3.12499,-0.90278 -7.48264,-1.41493 -12.96876,-1.48437 -5.48609,-0.0694 -11.21527,-0.0781 -17.18749,-0.0781 z"
     style="baseline-shift:baseline;display:inline;overflow:visible;vector-effect:none;fill:#000000;enable-background:accumulate;stop-color:#000000;stop-opacity:1"
     id="path7" />
  <path
     d="m 462.34711,-300.0081 v 32.8125 h 6.25 c 6.31943,-10e-6 11.72744,-0.10417 16.17187,-0.3125 4.44445,-0.20834 7.97744,-0.92883 10.54687,-2.10938 3.61112,-1.59722 5.92016,-3.59375 7.03125,-6.09375 1.11112,-2.56943 1.71875,-5.57292 1.71875,-8.90625 0,-2.56944 -0.71179,-5.08681 -2.03124,-7.65625 -1.24999,-2.56944 -3.45487,-4.53125 -6.71876,-5.78125 -2.91665,-1.11111 -6.5625,-1.64931 -10.9375,-1.71875 -4.30553,-0.13889 -10.43403,-0.23437 -18.28125,-0.23437 z"
     style="baseline-shift:baseline;display:inline;overflow:visible;vector-effect:none;fill:#000000;enable-background:accumulate;stop-color:#000000;stop-opacity:1"
     id="path6" />
  <path
     d="m 480.00336,-379.85184 c -33.3745,-1e-5 -66.75556,12.61494 -92.03125,37.89061 -50.55136,50.55136 -50.55136,133.51114 -10e-6,184.0625 50.55138,50.55138 133.51114,50.55136 184.06251,0 50.55136,-50.55136 50.55137,-133.51113 0,-184.0625 -25.27567,-25.27568 -58.65675,-37.89063 -92.03125,-37.89061 z m -57.42188,51.40624 h 60.23437 c 12.5,0 21.57989,0.41666 27.34376,1.25 5.83333,0.83334 11.64931,2.69965 17.34374,5.54687 5.90278,2.98612 10.27779,6.96182 13.125,12.03125 2.91668,4.99999 4.37501,10.72918 4.37501,17.1875 0,6.62535 -1.59856,12.62007 -4.6875,17.89063 -0.40779,0.69578 -0.78838,1.35907 -1.25001,2.03125 -3.95831,5.69443 -9.57466,10.16494 -16.79686,13.35938 l -10e-6,0.78124 c 9.49927,1.88685 17.10985,5.66182 22.89062,11.32813 0.38891,0.38184 0.79952,0.77321 1.17189,1.17187 5.97221,6.31944 8.98437,14.65279 8.98436,25 1e-5,7.5 -1.55381,14.25348 -4.60936,20.15625 -2.98611,5.90277 -7.14411,10.79863 -12.42189,14.6875 -6.11109,4.58333 -12.79515,7.82118 -20.15624,9.76563 -7.29165,1.94445 -16.56251,2.89062 -27.81251,2.89062 h -67.73437 l 10e-6,-45.70312 -10e-6,-61.71875 z"
     style="baseline-shift:baseline;display:inline;overflow:visible;vector-effect:none;fill:#000000;enable-background:accumulate;stop-color:#000000;stop-opacity:1"
     id="path5" />
</svg>
