<?xml version="1.0" encoding="UTF-8" standalone="no"?>
<svg
   height="24px"
   viewBox="0 -960 960 960"
   width="24px"
   fill="#e3e3e3"
   version="1.1"
   id="svg1"
   sodipodi:docname="buttons_android.svg"
   inkscape:version="1.4.2 (ebf0e940, 2025-05-08)"
   xmlns:inkscape="http://www.inkscape.org/namespaces/inkscape"
   xmlns:sodipodi="http://sodipodi.sourceforge.net/DTD/sodipodi-0.dtd"
   xmlns="http://www.w3.org/2000/svg"
   xmlns:svg="http://www.w3.org/2000/svg">
  <defs
     id="defs1" />
  <sodipodi:namedview
     id="namedview1"
     pagecolor="#505050"
     bordercolor="#eeeeee"
     borderopacity="1"
     inkscape:showpageshadow="0"
     inkscape:pageopacity="0"
     inkscape:pagecheckerboard="0"
     inkscape:deskcolor="#505050"
     inkscape:zoom="27.139834"
     inkscape:cx="8.3825124"
     inkscape:cy="12.232941"
     inkscape:window-width="2560"
     inkscape:window-height="1319"
     inkscape:window-x="1440"
     inkscape:window-y="30"
     inkscape:window-maximized="1"
     inkscape:current-layer="svg1" />
  <path
     d="m 479.375,-292.73437 -19.0625,55.625 h 38.125 z"
     style="baseline-shift:baseline;display:inline;overflow:visible;vector-effect:none;fill:#000000;enable-background:accumulate;stop-color:#000000;stop-opacity:1"
     id="path17" />
  <path
     d="m 480,-379.84375 c -33.37451,0 -66.75557,12.61494 -92.03125,37.89063 -50.55136,50.55136 -50.55136,133.51113 0,184.0625 50.55137,50.55136 133.51114,50.55136 184.0625,0 50.55136,-50.55137 50.55137,-133.51114 0,-184.0625 C 546.75557,-367.22881 513.37451,-379.84375 480,-379.84375 Z m -23.125,47.42188 h 46.01562 l 9.60938,26.01562 28.90625,78.28125 v 0.0781 l 14.60937,39.375 4.14063,11.32812 h -14.92188 -26.40625 l -5.625,-16.5625 -5.07812,-14.76562 h -57.5 l -4.84375,14.14062 -5.9375,17.1875 h -25.07813 -15.23437 l 4.29687,-11.5625 14.60938,-39.53125 28.75,-77.73437 z"
     style="baseline-shift:baseline;display:inline;overflow:visible;vector-effect:none;fill:#000000;enable-background:accumulate;stop-color:#000000;stop-opacity:1"
     id="path16" />
  <path
     d="m 480,-840 c -33.37451,0 -66.75557,12.61494 -92.03125,37.89063 -50.55136,50.55136 -50.55137,133.51113 0,184.0625 50.55136,50.55136 133.51114,50.55136 184.0625,0 50.55136,-50.55137 50.55136,-133.51114 0,-184.0625 C 546.75557,-827.38506 513.37451,-840 480,-840 Z m -78.20313,54.92188 h 15.78125 29.6875 l 8.125,14.60937 25.39063,45.39063 24.375,-45.15625 8.04687,-14.84375 h 29.21875 14.6875 l -5.3125,8.90625 -17.89062,29.60937 L 499.92187,-690 V -647.96875 -630 h -40 v -17.96875 -40.15625 l -34.45312,-57.5 -17.89063,-29.84375 z"
     style="baseline-shift:baseline;display:inline;overflow:visible;vector-effect:none;fill:#000000;enable-background:accumulate;stop-color:#000000;stop-opacity:1"
     id="path14" />
  <path
     d="m 249.92187,-609.92187 c -33.3745,0 -66.75556,12.61494 -92.03125,37.89062 -50.55136,50.55136 -50.55136,133.51113 0,184.0625 50.55137,50.55136 133.51114,50.55136 184.0625,0 50.55137,-50.55136 50.55137,-133.51114 0,-184.0625 -25.27568,-25.27568 -58.65674,-37.89063 -92.03125,-37.89062 z M 172.5,-558.75 h 19.76562 26.40625 l 11.17188,16.71875 21.09375,31.5625 21.25,-30.85937 11.95312,-17.42188 h 23.4375 20.85938 l -8.04688,11.17188 -19.45312,27.10937 -26.64063,37.10938 28.51563,41.32812 19.21875,27.89063 7.26562,10.46875 h -18.51562 -27.73438 l -10.07812,-15.3125 -23.35938,-35.70313 -23.59375,35.3125 -10.46875,15.70313 h -26.40625 -17.8125 l 7.03125,-9.92188 19.375,-27.57812 28.59375,-40.625 -27.1875,-38.90625 L 180,-548.04687 Z"
     style="baseline-shift:baseline;display:inline;overflow:visible;vector-effect:none;fill:#000000;enable-background:accumulate;stop-color:#000000;stop-opacity:1"
     id="path15" />
  <path
     d="m 692.42187,-470.46875 v 38.59375 h 2.96875 c 11.24999,0 19.27953,-0.009 24.14063,-0.0781 4.8611,-0.0694 9.34028,-0.99827 13.4375,-2.73438 4.16666,-1.73611 6.98785,-4.02778 8.51562,-6.875 1.59722,-2.91666 2.42188,-6.25001 2.42188,-10 0,-4.93055 -0.94618,-8.68924 -2.89063,-11.32812 -1.87499,-2.70833 -5.10417,-4.69619 -9.6875,-6.01563 -3.12499,-0.90278 -7.48264,-1.41493 -12.96875,-1.48437 -5.4861,-0.0694 -11.21528,-0.0781 -17.1875,-0.0781 z"
     style="baseline-shift:baseline;display:inline;overflow:visible;vector-effect:none;fill:#000000;enable-background:accumulate;stop-color:#000000;stop-opacity:1"
     id="path7" />
  <path
     d="m 692.42187,-530.07812 v 32.8125 h 6.25 c 6.31944,-10e-6 11.72744,-0.10417 16.17188,-0.3125 4.44444,-0.20834 7.97743,-0.92883 10.54687,-2.10938 3.61111,-1.59722 5.92015,-3.59375 7.03125,-6.09375 1.11111,-2.56944 1.71875,-5.57292 1.71875,-8.90625 0,-2.56944 -0.7118,-5.08681 -2.03125,-7.65625 -1.24999,-2.56944 -3.45486,-4.53125 -6.71875,-5.78125 -2.91666,-1.11111 -6.5625,-1.64931 -10.9375,-1.71875 -4.30554,-0.13889 -10.43404,-0.23437 -18.28125,-0.23437 z"
     style="baseline-shift:baseline;display:inline;overflow:visible;vector-effect:none;fill:#000000;enable-background:accumulate;stop-color:#000000;stop-opacity:1"
     id="path6" />
  <path
     d="m 710.07812,-609.92187 c -33.3745,0 -66.75556,12.61494 -92.03125,37.89062 -50.55136,50.55136 -50.55135,133.51114 0,184.0625 50.55137,50.55137 133.51114,50.55136 184.0625,0 50.55137,-50.55136 50.55137,-133.51113 0,-184.0625 -25.27567,-25.27568 -58.65674,-37.89063 -92.03125,-37.89062 z m -57.42187,51.40625 h 60.23437 c 12.49999,0 21.57988,0.41666 27.34375,1.25 5.83333,0.83333 11.64932,2.69965 17.34375,5.54687 5.90277,2.98611 10.27779,6.96181 13.125,12.03125 2.91667,4.99999 4.375,10.72918 4.375,17.1875 0,6.62535 -1.59856,12.62007 -4.6875,17.89063 -0.40778,0.69578 -0.78838,1.35907 -1.25,2.03125 -3.95832,5.69443 -9.57466,10.16493 -16.79687,13.35937 v 0.78125 c 9.49927,1.88684 17.10985,5.66182 22.89062,11.32813 0.38923,0.38151 0.79951,0.77322 1.17188,1.17187 5.97221,6.31943 8.98437,14.65279 8.98437,25 0,7.49999 -1.55382,14.25348 -4.60937,20.15625 -2.98611,5.90277 -7.14411,10.79862 -12.42188,14.6875 -6.1111,4.58333 -12.79515,7.82118 -20.15625,9.76563 -7.29165,1.94444 -16.56251,2.89062 -27.8125,2.89062 h -67.73437 v -45.70312 -61.71875 z"
     style="baseline-shift:baseline;display:inline;overflow:visible;vector-effect:none;fill:#000000;enable-background:accumulate;stop-color:#000000;stop-opacity:1"
     id="path5" />
</svg>
