<?xml version="1.0" encoding="UTF-8" standalone="no"?>
<svg
   height="24px"
   viewBox="0 -960 960 960"
   width="24px"
   fill="#e3e3e3"
   version="1.1"
   id="svg1"
   sodipodi:docname="buttons_playstation.svg"
   inkscape:version="1.4.2 (ebf0e940, 2025-05-08)"
   xmlns:inkscape="http://www.inkscape.org/namespaces/inkscape"
   xmlns:sodipodi="http://sodipodi.sourceforge.net/DTD/sodipodi-0.dtd"
   xmlns="http://www.w3.org/2000/svg"
   xmlns:svg="http://www.w3.org/2000/svg">
  <defs
     id="defs1" />
  <sodipodi:namedview
     id="namedview1"
     pagecolor="#505050"
     bordercolor="#eeeeee"
     borderopacity="1"
     inkscape:showpageshadow="0"
     inkscape:pageopacity="0"
     inkscape:pagecheckerboard="0"
     inkscape:deskcolor="#505050"
     inkscape:zoom="38.381522"
     inkscape:cx="7.8292883"
     inkscape:cy="11.620175"
     inkscape:window-width="2560"
     inkscape:window-height="1319"
     inkscape:window-x="1440"
     inkscape:window-y="30"
     inkscape:window-maximized="1"
     inkscape:current-layer="svg1" />
  <path
     d="m 480,-379.84375 c -33.37451,0 -66.75557,12.61494 -92.03125,37.89063 -50.55136,50.55136 -50.55136,133.51113 0,184.0625 50.55137,50.55136 133.51114,50.55136 184.0625,0 50.55136,-50.55137 50.55137,-133.51114 0,-184.0625 C 546.75557,-367.22881 513.37451,-379.84375 480,-379.84375 Z m -67.5,49.375 5.3125,5.3125 23.125,23.125 38.75,38.75 38.98437,-38.98437 23.125,-23.20313 h 0.0781 l 5,-5 16.79687,16.79688 -5.39062,5.39062 -23.35938,23.35938 -38.4375,38.4375 35.625,35.625 23.125,23.125 8.4375,8.4375 L 546.875,-162.5 537.96875,-171.40625 514.60937,-194.76562 479.6875,-229.6875 445,-195 l -23.28125,23.28125 h -0.0781 L 412.5,-162.5 l -16.79688,-16.79687 8.75,-8.82813 23.20313,-23.125 35.23437,-35.23437 -38.04687,-38.04688 -23.35938,-23.35937 -5.78125,-5.78125 z"
     style="baseline-shift:baseline;display:inline;overflow:visible;vector-effect:none;fill:#000000;enable-background:accumulate;stop-color:#000000;stop-opacity:1"
     id="path35" />
  <path
     d="m 479.375,-771.79687 -55.07813,95.46875 -8.4375,14.60937 h 20.54688 87.1875 19.375 l -7.89063,-13.59375 z"
     style="baseline-shift:baseline;display:inline;overflow:visible;vector-effect:none;fill:#000000;enable-background:accumulate;stop-color:#000000;stop-opacity:1"
     id="path32" />
  <path
     d="m 480,-840 c -33.37451,0 -66.75557,12.61494 -92.03125,37.89063 -50.55136,50.55136 -50.55137,133.51113 0,184.0625 50.55136,50.55136 133.51114,50.55136 184.0625,0 50.55136,-50.55137 50.55136,-133.51114 0,-184.0625 C 546.75557,-827.38506 513.37451,-840 480,-840 Z m -0.625,31.79688 0.3125,0.54687 20.54687,35.625 h 0.0781 l 43.51562,75.39063 20.54688,35.54687 10.15625,17.57813 h -23.125 -142.8125 -24.29688 L 395,-662.03125 415.85937,-698.125 v -0.0781 l 42.34375,-73.35938 20.85938,-36.09375 z"
     style="baseline-shift:baseline;display:inline;overflow:visible;vector-effect:none;fill:#000000;enable-background:accumulate;stop-color:#000000;stop-opacity:1"
     id="path31" />
  <path
     d="m 189.45312,-540.625 v 36.32813 48.59375 37.26562 h 38.98438 42.96875 40.23437 v -40.46875 -42.1875 -39.53125 H 273.90625 225.9375 Z"
     style="baseline-shift:baseline;display:inline;overflow:visible;vector-effect:none;fill:#000000;enable-background:accumulate;stop-color:#000000;stop-opacity:1"
     id="path34" />
  <path
     d="m 249.92187,-609.92187 c -33.3745,0 -66.75556,12.61494 -92.03125,37.89062 -50.55136,50.55136 -50.55136,133.51113 0,184.0625 50.55137,50.55136 133.51114,50.55136 184.0625,0 50.55137,-50.55136 50.55137,-133.51114 0,-184.0625 -25.27568,-25.27568 -58.65674,-37.89063 -92.03125,-37.89062 z m -80.46875,49.29687 h 25.46875 110 26.71875 v 27.26563 106.71875 28.20312 h -28.125 -107.1875 -26.875 v -26.32812 -110.46875 z"
     style="baseline-shift:baseline;display:inline;overflow:visible;vector-effect:none;fill:#000000;enable-background:accumulate;stop-color:#000000;stop-opacity:1"
     id="path33" />
  <path
     d="m 710.07812,-545.3125 c -16.58507,3.5e-4 -33.17342,6.45467 -46.01562,19.29688 -25.6844,25.6844 -25.6844,66.34685 0,92.03125 25.6844,25.6844 66.34685,25.6844 92.03125,0 25.6844,-25.68441 25.6844,-66.34685 0,-92.03125 -12.8422,-12.8422 -29.43055,-19.29723 -46.01563,-19.29688 z"
     style="baseline-shift:baseline;display:inline;overflow:visible;vector-effect:none;fill:#000000;enable-background:accumulate;stop-color:#000000;stop-opacity:1"
     id="path29" />
  <path
     d="m 710.39062,-561.48437 c -45.36612,0 -81.95312,36.587 -81.95312,81.95312 0,45.36612 36.587,81.95313 81.95312,81.95313 45.36613,-10e-6 81.95313,-36.58701 81.95313,-81.95313 0,-45.36612 -36.587,-81.95312 -81.95313,-81.95312 z m -0.3125,16.17187 c 16.58508,-3.5e-4 33.17343,6.45468 46.01563,19.29688 25.6844,25.6844 25.6844,66.34684 0,92.03125 -25.6844,25.6844 -66.34685,25.6844 -92.03125,0 -25.6844,-25.6844 -25.6844,-66.34685 0,-92.03125 12.8422,-12.84221 29.43055,-19.29653 46.01562,-19.29688 z"
     style="baseline-shift:baseline;display:inline;overflow:visible;vector-effect:none;fill:#000000;enable-background:accumulate;stop-color:#000000;stop-opacity:1"
     id="path28" />
  <path
     d="m 710.07812,-609.92187 c -33.3745,0 -66.75556,12.61494 -92.03125,37.89062 -50.55136,50.55136 -50.55135,133.51114 0,184.0625 50.55137,50.55137 133.51114,50.55136 184.0625,0 50.55137,-50.55136 50.55137,-133.51113 0,-184.0625 -25.27567,-25.27568 -58.65674,-37.89063 -92.03125,-37.89062 z m 0.3125,28.4375 c 56.17492,0 101.95313,45.7782 101.95313,101.95312 0,56.17492 -45.77821,101.95313 -101.95313,101.95313 -56.17491,-10e-6 -101.95312,-45.77821 -101.95312,-101.95313 0,-56.17492 45.7782,-101.95312 101.95312,-101.95312 z"
     style="baseline-shift:baseline;display:inline;overflow:visible;vector-effect:none;fill:#000000;enable-background:accumulate;stop-color:#000000;stop-opacity:1"
     id="path27" />
</svg>
