<?xml version="1.0" encoding="UTF-8" standalone="no"?><!DOCTYPE svg PUBLIC "-//W3C//DTD SVG 1.1//EN" "http://www.w3.org/Graphics/SVG/1.1/DTD/svg11.dtd"><svg width="100%" height="100%" viewBox="0 0 834 834" version="1.1" xmlns="http://www.w3.org/2000/svg" xmlns:xlink="http://www.w3.org/1999/xlink" xml:space="preserve" xmlns:serif="http://www.serif.com/" style="fill-rule:evenodd;clip-rule:evenodd;stroke-linejoin:round;stroke-miterlimit:2;"><g id="Ebene-1" serif:id="Ebene 1"><clipPath id="_clip1"><rect x="21.084" y="45.427" width="791.166" height="742.479"/></clipPath><g clip-path="url(#_clip1)"><path d="M495.783,581.661l0,191.538c-33.62,9.756 -68.452,14.708 -103.46,14.708c-203.656,0 -371.24,-167.584 -371.24,-371.24c-0,-203.656 167.584,-371.24 371.24,-371.24c35.007,-0 69.839,4.952 103.46,14.708l0,191.538c-31.003,-19.44 -66.866,-29.755 -103.46,-29.755c-106.836,0 -194.749,87.913 -194.749,194.749c0,106.836 87.913,194.749 194.749,194.749c36.594,0 72.457,-10.314 103.46,-29.755" style="fill-rule:nonzero;"/><path d="M666.188,398.409l146.062,-146.062l-316.467,0l0,146.062l170.405,0Z" style="fill-rule:nonzero;"/><path d="M666.188,434.924l146.062,146.062l-316.467,0l0,-146.062l170.405,0Z" style="fill-rule:nonzero;"/></g></g></svg>