<?xml version="1.0" encoding="UTF-8" standalone="no"?><!DOCTYPE svg PUBLIC "-//W3C//DTD SVG 1.1//EN" "http://www.w3.org/Graphics/SVG/1.1/DTD/svg11.dtd"><svg width="100%" height="100%" viewBox="0 0 834 834" version="1.1" xmlns="http://www.w3.org/2000/svg" xmlns:xlink="http://www.w3.org/1999/xlink" xml:space="preserve" xmlns:serif="http://www.serif.com/" style="fill-rule:evenodd;clip-rule:evenodd;stroke-linejoin:round;stroke-miterlimit:2;"><g id="Ebene-1" serif:id="Ebene 1"><clipPath id="_clip1"><rect x="11.686" y="11.686" width="809.962" height="809.962"/></clipPath><g clip-path="url(#_clip1)"><g id="layer1"><path id="path4016" d="M821.64,416.674c0,223.67 -181.319,404.99 -404.988,404.99c-223.668,0 -404.987,-181.32 -404.987,-404.99c0,-223.671 181.319,-404.99 404.987,-404.99c223.67,0 404.988,181.32 404.988,404.99Z" style="fill:#fff;fill-opacity:0.3;fill-rule:nonzero;"/><g id="g3952"><g id="g3972"><path id="path3132" d="M369.476,818.14l-13.363,-1.94l11.879,-2.58l11.879,-2.581l-26.259,-5.655c-24.667,-5.311 -26.482,-5.347 -29.952,-0.585c-3.456,4.743 -4.927,4.658 -22.841,-1.325c-10.532,-3.518 -23.78,-10.188 -29.441,-14.827c-8.912,-7.3 -38.507,-20.178 -38.507,-16.756c0,0.668 3.675,3.215 8.167,5.66c4.492,2.446 6.802,4.5 5.135,4.566c-3.654,0.144 -48.938,-26.175 -48.938,-28.441c0,-0.876 1.67,-0.606 3.713,0.602c2.041,1.207 -6.538,-8.644 -19.067,-21.894c-12.527,-13.249 -28.765,-34.352 -36.083,-46.895c-12.652,-21.689 -14.355,-23.311 -34.776,-33.132l-21.471,-10.327l5.256,8.264c7.425,11.676 24.097,32.775 38.322,48.495l12.133,13.411l-15.805,-14.902c-22.989,-21.673 -55.977,-66.884 -58.706,-80.462c-1.767,-8.785 -18.574,-39.727 -20.587,-37.902c-1.299,1.178 -1.461,0.562 -0.36,-1.366c1.101,-1.929 -1.354,-13.823 -5.454,-26.43c-4.1,-12.607 -9.006,-31.816 -10.898,-42.684c-1.892,-10.868 -5.476,-21.426 -7.962,-23.46c-12.25,-10.02 -12.431,-94.744 -0.329,-154.675c2.448,-12.123 4.152,-15.07 8.147,-14.092c4.06,0.994 6.772,-4.192 13.808,-26.394c9.414,-29.707 32.701,-78.138 48.988,-101.896c6.735,-9.821 8.421,-14.035 5.109,-12.76c-2.719,1.047 -4.944,0.738 -4.944,-0.69c0,-5.31 57.575,-63.123 78.913,-79.242c43.378,-32.762 114.309,-64.628 165.629,-74.411c24.465,-4.664 54.374,-6.512 57.331,-3.545c1.114,1.118 -1.205,2.044 -5.151,2.058c-12.964,0.049 -64.278,19.67 -86.429,33.049c-20.475,12.366 -21.209,13.167 -12.809,14.006c4.9,0.49 24.835,3.428 44.301,6.533l35.391,5.644l21.308,-19.943c11.719,-10.969 28.133,-23.458 36.475,-27.754l15.169,-7.81l-13.631,-1.875c-7.498,-1.031 -17.79,-1.896 -22.87,-1.92c-7.056,-0.036 -8.185,-0.727 -4.782,-2.934c5.041,-3.27 38.571,-3.49 60.877,-0.402l14.849,2.056l-10.394,2.455c-10.038,2.371 -9.58,2.64 13.363,7.872c21.618,4.929 24.087,4.991 27.412,0.699c3.319,-4.285 5.349,-4.203 22.189,0.913c10.195,3.097 22.583,9.146 27.527,13.44c4.946,4.294 15.674,10 23.84,12.679c12.273,4.028 13.848,4.107 9.083,0.461c-3.171,-2.427 -4.479,-4.412 -2.909,-4.412c3.639,0 48.763,26.43 48.763,28.56c0,0.876 -1.671,0.575 -3.713,-0.671c-2.043,-1.245 5.646,7.954 17.086,20.445c11.438,12.492 26.806,32.736 34.151,44.989c12.519,20.884 14.7,22.935 34.882,32.798c11.843,5.786 21.53,9.893 21.53,9.125c0,-3.44 -26.432,-36.775 -45.53,-57.423l-20.989,-22.692l23.065,22.352c25.79,24.992 55.005,62.067 56.955,72.274c0.703,3.683 3.098,8.039 5.32,9.679c2.222,1.639 4.216,4.321 4.429,5.961c0.214,1.638 5.773,16.002 12.355,31.917c6.582,15.916 15.396,43.407 19.586,61.092c4.191,17.686 9.616,33.713 12.057,35.616c10.635,8.293 12.616,99.443 3.194,147.038c-3.235,16.344 -4.746,19.281 -9.669,18.794c-4.857,-0.478 -7.05,3.469 -13.084,23.546c-9.704,32.284 -28.496,73.555 -45.52,99.96c-9.517,14.765 -12.537,21.607 -9.534,21.607c2.416,0 4.395,1.209 4.395,2.686c0,5.351 -57.317,63.022 -78.639,79.13c-41.806,31.572 -113.534,63.839 -165.491,74.439c-22.32,4.555 -52.557,6.378 -49.158,2.964c0.935,-0.938 14.188,-6.028 29.449,-11.312c30.149,-10.436 71.999,-33.301 69.218,-37.814c-0.95,-1.544 -5.992,-2.851 -11.205,-2.903c-5.211,-0.05 -24.081,-2.632 -41.935,-5.733l-32.456,-5.641l-20.032,20.102c-11.016,11.056 -26.144,23.356 -33.62,27.336c-7.474,3.977 -13.59,8.085 -13.59,9.125c0,1.04 8.892,2.849 19.76,4.017c13.29,1.428 18.395,2.99 15.591,4.771c-4.644,2.95 -38.517,2.895 -59.105,-0.097l0.007,-0.001Zm-148.494,-129.365c0,-0.596 -1.454,-8.307 -3.233,-17.136c-1.779,-8.829 -4.117,-40.075 -5.197,-69.437l-1.964,-53.383l-56.422,-17.146c-31.033,-9.429 -56.89,-16.673 -57.466,-16.099c-0.573,0.575 1.039,14.209 3.583,30.297c5.656,35.771 17.302,76.895 28.04,99.014l8.024,16.528l40.092,14.063c39.81,13.967 44.545,15.38 44.545,13.3l0,-0.003l-0.001,0Zm-123.691,-304.382c2.58,-14.752 5.52,-30.92 6.534,-35.927l1.84,-9.105l-32.179,-7.619c-22.601,-5.35 -32.727,-6.632 -34.023,-4.306c-9.246,16.619 -14.819,148.712 -6.621,156.938c1.878,1.884 15.242,7.894 29.696,13.356l26.282,9.929l1.889,-48.223c1.039,-26.523 4,-60.294 6.58,-75.044l0.001,0Zm568.163,251.082c12.833,-20.342 32.351,-64.186 43.519,-97.768c16.701,-50.219 22.677,-43.11 -51.436,-61.184c-35.116,-8.564 -64.173,-15.257 -64.569,-14.876c-0.398,0.382 -6.129,19.243 -12.734,41.913c-6.605,22.672 -19.101,59.162 -27.765,81.094c-8.664,21.93 -14.961,40.343 -13.993,40.914c0.969,0.573 23.143,5.153 49.278,10.176c26.132,5.024 50.187,9.713 53.453,10.42c13.535,2.928 16.474,1.633 24.248,-10.69Zm-193.19,-461.173c8.68,-33.602 15.831,-62.6 15.89,-64.447c0.059,-1.844 -3.566,-4.153 -8.058,-5.13c-4.492,-0.978 -29.548,-6.475 -55.681,-12.215l-47.514,-10.439l-5.328,6.628c-20.145,25.058 -70.647,110.669 -67.027,113.614c0.596,0.484 23.133,5.801 50.082,11.813c26.95,6.013 59.022,13.46 71.271,16.548c12.25,3.088 24.143,5.413 26.429,5.166c2.822,-0.305 9.22,-20.054 19.937,-61.543l0,0.004Zm263.252,130.38c-5.3,-43.707 -19.021,-95.728 -32.095,-121.693l-6.878,-13.663l-41.032,-13.935c-22.568,-7.665 -41.761,-13.921 -42.654,-13.903c-0.893,0.019 0.037,11.096 2.064,24.619c2.03,13.522 3.763,44.773 3.852,69.448l0.161,44.859l54.196,16.593c29.808,9.125 56.303,16.766 58.88,16.977c3.596,0.294 4.409,-1.863 3.507,-9.303Zm-546.931,-146.005c15.62,-22.346 48.229,-57.363 71.898,-77.208l17.231,-14.445l-53.004,0l-25.829,18.437c-14.206,10.141 -39.998,33.274 -57.317,51.409l-31.489,32.972l25.012,3.274c42.155,5.518 38.939,6.387 53.496,-14.436l0.001,-0.003Zm62.115,170.594c13.128,-43.746 19.077,-60.697 33.861,-96.471c6.008,-14.542 10.345,-27.019 9.639,-27.729c-0.708,-0.71 -26.315,-6.142 -56.903,-12.071c-40.123,-7.776 -56.968,-9.932 -60.469,-7.738c-8.183,5.127 -40.451,72.979 -53.657,112.828c-6.872,20.741 -12.005,38.203 -11.403,38.806c1.954,1.962 119.474,30.539 123.676,30.073c2.521,-0.278 8.343,-14.664 15.255,-37.7l0.001,0.003Zm377.532,425.859c27.303,-18.605 57.133,-45.43 78.612,-70.697l19.398,-22.814l-27.682,-3.601c-41.404,-5.387 -38.06,-6.463 -54.919,17.675c-18.741,26.832 -44.402,55.228 -66.845,73.971c-16.745,13.984 -16.948,14.336 -9.039,15.541c4.45,0.68 15.849,1.436 25.33,1.681c15.636,0.405 18.907,-0.689 35.145,-11.756Zm-298.299,5.02c3.807,-17.878 6.453,-32.978 5.88,-33.552c-0.573,-0.575 -22.969,-7.208 -49.768,-14.739c-26.801,-7.531 -51.135,-14.4 -54.076,-15.263c-4.573,-1.343 -5.053,-0.323 -3.302,7.012c4.211,17.64 16.608,47.632 25.318,61.253c7.9,12.355 11.076,14.671 25.867,18.856c9.273,2.623 20.202,5.962 24.285,7.418c16.695,5.955 18.355,3.961 25.799,-30.987l-0.003,0.001Zm262.927,-329.807c10.228,-43.885 23.779,-148.763 19.22,-148.763c-0.963,0 -34.844,-8.705 -75.288,-19.344c-40.446,-10.638 -74.421,-18.35 -75.502,-17.136c-3.711,4.172 -41.401,165.755 -39.141,167.817c2.975,2.715 158.779,41.355 162.605,40.328c1.625,-0.435 5.273,-10.743 8.106,-22.901Zm-114.313,288.577c11.179,-16.8 27.283,-44.161 35.785,-60.798l15.46,-30.253l-22.995,-5.029c-12.647,-2.764 -47.05,-10.824 -76.448,-17.905c-29.401,-7.084 -53.997,-12.345 -54.661,-11.691c-2.761,2.725 -32.042,128.078 -30.344,129.912c1.018,1.102 23.233,6.707 49.366,12.456c26.133,5.747 50.187,11.061 53.455,11.806c3.268,0.745 6.865,1.51 7.998,1.701c1.13,0.187 11.204,-13.402 22.383,-30.2Zm-87.721,-218.039c11.128,-45.749 19.647,-83.768 18.932,-84.484c-3.028,-3.039 -163.703,-41.913 -165.428,-40.025c-5.3,5.807 -26.318,136.466 -26.318,163.615c0,7.512 -5.79,5.495 84.635,29.472c32.668,8.662 61.319,15.492 63.671,15.177c3.038,-0.406 10.143,-24.693 24.508,-83.755Zm211.829,-376.504c-3.199,-17.312 -18.553,-52.164 -27.579,-62.607c-6.42,-7.426 -13.733,-11.007 -34.645,-16.96c-14.579,-4.151 -27.059,-6.994 -27.734,-6.316c-0.673,0.677 -4.92,15.881 -9.434,33.788l-8.209,32.556l53.758,15.073c29.569,8.291 54.241,15.203 54.833,15.36c0.59,0.157 0.144,-4.745 -0.993,-10.891l0.003,-0.001Zm200.691,349.167c4.196,-25.869 5.296,-100.578 1.739,-118.032c-2.128,-10.435 -3.417,-11.453 -25.203,-19.884c-12.629,-4.888 -26.282,-9.719 -30.339,-10.739l-7.376,-1.852l-0.52,47.067c-0.357,32.271 -2.468,58.224 -6.712,82.552c-3.404,19.516 -5.599,36.075 -4.877,36.801c0.722,0.725 15.769,4.975 33.439,9.448c37.208,9.419 33.864,11.548 39.849,-25.361Z"/><path id="path3090" d="M149.34,717.426c-3.694,-4.728 -3.589,-4.831 1.121,-1.125c2.858,2.25 5.197,4.597 5.197,5.215c0,2.453 -2.439,0.874 -6.318,-4.09Z" style="fill:#fff;fill-rule:nonzero;"/></g></g></g></g></g></svg>