<?xml version="1.0" encoding="UTF-8" standalone="no"?><!DOCTYPE svg PUBLIC "-//W3C//DTD SVG 1.1//EN" "http://www.w3.org/Graphics/SVG/1.1/DTD/svg11.dtd"><svg width="100%" height="100%" viewBox="0 0 1659 1659" version="1.1" xmlns="http://www.w3.org/2000/svg" xmlns:xlink="http://www.w3.org/1999/xlink" xml:space="preserve" xmlns:serif="http://www.serif.com/" style="fill-rule:evenodd;clip-rule:evenodd;stroke-linejoin:round;stroke-miterlimit:2;"><g id="Ebene-1" serif:id="Ebene 1"><path id="path2" d="M828.209,356.711l-0.388,176.888l-375.897,0l0,489.517l374.967,0c-0.18,112.504 -0.307,213.927 -0.307,279.525c-61.855,-0.259 -175.693,-5.184 -290.74,-19.414c-73.004,-9.029 -127.164,-16.768 -186.247,-39.987c-56.181,-22.079 -73.227,-29.817 -110.758,-42.23c-38.684,-12.795 -79.78,-18.126 -117.642,-33.181c-72.927,-28.998 -123.134,-55.219 -121.122,-166.756c2.844,-157.663 9.638,-324.115 40.761,-487.66c3.533,-18.567 5.008,-31.596 42.076,-38.75c85.548,-16.51 199.082,-52.699 229.328,-71.931c63.669,-40.484 81.682,-44.396 164.822,-44.396c112.612,0 329.191,-1.472 351.147,-1.624Zm-675.154,412.418l0,46.187c0,10.147 8.238,18.385 18.385,18.385l37.851,0c10.147,0 18.385,-8.238 18.385,-18.385l0,-46.187l45.916,0c10.296,0 18.655,-8.359 18.655,-18.655l0,-37.311c0,-10.296 -8.359,-18.655 -18.655,-18.655l-45.916,0l0,-46.187c0,-10.147 -8.238,-18.385 -18.385,-18.385l-37.851,0c-10.147,0 -18.385,8.238 -18.385,18.385l0,46.187l-45.916,0c-10.296,0 -18.655,8.359 -18.655,18.655l0,37.311c0,10.296 8.359,18.655 18.655,18.655l45.916,0Zm678.325,253.987l374.968,0l0,-489.517l-375.897,0l-0.388,-176.888c21.956,0.149 238.534,1.624 351.146,1.624c83.14,0 101.153,3.912 164.822,44.396c30.246,19.232 143.857,55.421 229.405,71.931c37.068,7.154 38.465,20.183 41.998,38.75c31.123,163.545 37.917,329.998 40.761,487.66c2.012,111.537 -48.117,137.758 -121.045,166.756c-37.861,15.055 -79.035,20.386 -117.719,33.181c-37.531,12.414 -54.578,20.152 -110.758,42.23c-59.082,23.219 -113.243,30.958 -186.247,39.987c-115.046,14.229 -228.885,19.154 -290.74,19.414c0,-65.596 -0.124,-167.016 -0.307,-279.525Zm663.356,-367.176c-32.703,0 -59.254,26.551 -59.254,59.254c0,32.703 26.551,59.254 59.254,59.254c32.703,0 59.254,-26.551 59.254,-59.254c0,-32.703 -26.551,-59.254 -59.254,-59.254Zm-151.611,59.254c-32.703,0 -59.254,26.551 -59.254,59.254c0,32.703 26.551,59.254 59.254,59.254c32.703,0 59.254,-26.551 59.254,-59.254c0,-32.703 -26.551,-59.254 -59.254,-59.254Z"/><path id="path5" d="M824.915,1023.116c-0.29,112.504 -0.495,213.927 -0.495,279.525c2.664,0 5.4,0.007 8.199,0c0,-65.596 -0.207,-167.016 -0.495,-279.525l-7.208,0Z" style="fill-rule:nonzero;"/><path id="path4" d="M824.765,356.711c-0.009,0.789 -0.793,72.173 -1.895,176.888l12.839,0c-1.102,-104.335 -1.876,-175.588 -1.895,-176.888c-5.804,-0.008 -9.062,0 -9.062,0l0.012,0Z" style="fill-rule:nonzero;"/></g></svg>