<?xml version="1.0" encoding="UTF-8" standalone="no"?><!DOCTYPE svg PUBLIC "-//W3C//DTD SVG 1.1//EN" "http://www.w3.org/Graphics/SVG/1.1/DTD/svg11.dtd"><svg width="100%" height="100%" viewBox="0 0 834 834" version="1.1" xmlns="http://www.w3.org/2000/svg" xmlns:xlink="http://www.w3.org/1999/xlink" xml:space="preserve" xmlns:serif="http://www.serif.com/" style="fill-rule:evenodd;clip-rule:evenodd;stroke-linejoin:round;stroke-miterlimit:2;"><g id="Ebene-1" serif:id="Ebene 1"><g><path d="M4.119,476.387l172.295,-172.982l0,74.822l75.508,-74.822l0,120.813l121.499,-121.499l0,135.914l135.914,-135.228l0,74.822l75.508,-74.822l0,116.008l113.262,-113.262l131.109,0l-42.559,42.559l-66.584,0l-19.22,19.22l35.008,0l-44.618,44.618l-35.695,0l-19.907,19.907l116.694,0l-44.618,43.932l-178.473,0l10.983,-12.356l0,-47.364l-63.839,62.466l0,-72.762l-70.016,70.016l-78.254,0l0,-59.72l-116.008,116.008l-68.644,0l63.839,-63.839l0,-52.169l-63.839,62.466l0,-72.762l-70.703,70.016l-68.644,0Z" style="fill-rule:nonzero;"/></g></g></svg>