<?xml version="1.0" encoding="UTF-8" standalone="no"?><!DOCTYPE svg PUBLIC "-//W3C//DTD SVG 1.1//EN" "http://www.w3.org/Graphics/SVG/1.1/DTD/svg11.dtd"><svg width="100%" height="100%" viewBox="0 0 200 200" version="1.1" xmlns="http://www.w3.org/2000/svg" xmlns:xlink="http://www.w3.org/1999/xlink" xml:space="preserve" xmlns:serif="http://www.serif.com/" style="fill-rule:evenodd;clip-rule:evenodd;stroke-linejoin:round;stroke-miterlimit:2;"><g id="Ebene-1" serif:id="Ebene 1"><path id="path2" d="M200,95.727l-200,0l0,-70.841l0.014,0l0,-15.462c0,-5.224 4.217,-9.423 9.464,-9.423l181.044,0c5.247,0 9.478,4.199 9.478,9.423l0,86.304Zm-51.642,-9.369l0,-72.755l-97.014,-0l0,72.755l97.014,0Zm-148.358,104.22l0,-86.304l200,0l0,86.304c0,5.224 -4.231,9.423 -9.478,9.423l-181.044,0c-5.247,0 -9.478,-4.199 -9.478,-9.423Zm149.238,-4.408l0,-72.769l-97.014,0l0,72.769l97.014,0Z"/></g></svg>