<?xml version="1.0" encoding="UTF-8" standalone="no"?><!DOCTYPE svg PUBLIC "-//W3C//DTD SVG 1.1//EN" "http://www.w3.org/Graphics/SVG/1.1/DTD/svg11.dtd"><svg width="100%" height="100%" viewBox="0 0 834 834" version="1.1" xmlns="http://www.w3.org/2000/svg" xmlns:xlink="http://www.w3.org/1999/xlink" xml:space="preserve" xmlns:serif="http://www.serif.com/" style="fill-rule:evenodd;clip-rule:evenodd;stroke-linejoin:round;stroke-miterlimit:2;"><g id="Ebene-1" serif:id="Ebene 1"><g><path d="M812.445,165.178l0,502.978c0,8.542 -6.935,15.476 -15.476,15.476l-760.604,0c-8.542,0 -15.476,-6.935 -15.476,-15.476l0,-502.978c0,-8.542 6.935,-15.476 15.476,-15.476l760.604,0c8.542,0 15.476,6.935 15.476,15.476Zm-414.05,57.517c0.957,-7.275 -4.172,-13.959 -11.447,-14.916l-26.826,-3.53c-7.275,-0.957 -13.959,4.172 -14.916,11.447c-0.957,7.275 4.172,13.959 11.447,14.916l26.826,3.53c7.275,0.957 13.959,-4.172 14.916,-11.447Zm114.48,102.757c-17.596,0 -31.881,14.285 -31.881,31.881c0,17.596 14.285,31.881 31.881,31.881c17.596,0 31.881,-14.285 31.881,-31.881c0,-17.596 -14.285,-31.881 -31.881,-31.881Zm57.171,-58.241c-17.596,0 -31.881,14.285 -31.881,31.881c0,17.596 14.285,31.881 31.881,31.881c17.596,0 31.881,-14.285 31.881,-31.881c0,-17.596 -14.285,-31.881 -31.881,-31.881Zm-325.434,-22.181c-55.392,0 -100.364,44.972 -100.364,100.364c0,55.392 44.972,100.364 100.364,100.364c55.392,0 100.364,-44.972 100.364,-100.364c0,-55.392 -44.972,-100.364 -100.364,-100.364Zm224.849,151.811c-17.596,0 -31.881,14.285 -31.881,31.881c0,17.596 14.285,31.881 31.881,31.881c17.596,0 31.881,-14.285 31.881,-31.881c0,-17.596 -14.285,-31.881 -31.881,-31.881Zm170.654,-174.495c-17.596,0 -31.881,14.285 -31.881,31.881c0,17.596 14.285,31.881 31.881,31.881c17.596,0 31.881,-14.285 31.881,-31.881c0,-17.596 -14.285,-31.881 -31.881,-31.881Zm-191.56,0.35c0.957,7.275 7.641,12.405 14.916,11.447l26.826,-3.53c7.275,-0.957 12.405,-7.641 11.447,-14.916c-0.957,-7.275 -7.641,-12.405 -14.916,-11.447l-26.826,3.53c-7.275,0.957 -12.405,7.641 -11.447,14.916Z"/><circle cx="243.796" cy="345.377" r="45.69"/></g></g></svg>