<?xml version="1.0" encoding="UTF-8" standalone="no"?><!DOCTYPE svg PUBLIC "-//W3C//DTD SVG 1.1//EN" "http://www.w3.org/Graphics/SVG/1.1/DTD/svg11.dtd"><svg width="100%" height="100%" viewBox="0 0 13892 13892" version="1.1" xmlns="http://www.w3.org/2000/svg" xmlns:xlink="http://www.w3.org/1999/xlink" xml:space="preserve" xmlns:serif="http://www.serif.com/" style="fill-rule:evenodd;clip-rule:evenodd;stroke-linejoin:round;stroke-miterlimit:2;"><path d="M216.08,4444.51c0,-230.243 186.645,-416.888 416.888,-416.888l12625.73,0c230.243,0 416.888,186.645 416.888,416.888l0,5002.647c0,230.243 -186.645,416.888 -416.888,416.888l-12625.73,0c-230.238,0 -416.888,-186.645 -416.888,-416.888l0,-5002.647Zm4585.759,586.738c-32.886,0 -59.556,26.67 -59.556,59.556l0,357.332c0,32.886 26.67,59.556 59.556,59.556l3335.1,0c32.886,0 59.556,-26.67 59.556,-59.556l0,-357.332c0,-32.886 -26.67,-59.556 -59.556,-59.556l-3335.1,0Zm0,3838.104c-32.886,0 -59.556,26.67 -59.556,59.556l0,357.332c0,32.886 26.67,59.556 59.556,59.556l3335.1,0c32.886,0 59.556,-26.67 59.556,-59.556l0,-357.332c0,-32.886 -26.67,-59.556 -59.556,-59.556l-3335.1,0Zm0,-2221.294c-32.886,0 -59.556,26.67 -59.556,59.556l0,357.332c0,32.886 26.67,59.556 59.556,59.556l3335.1,0c32.886,0 59.556,-26.67 59.556,-59.556l0,-357.332c0,-32.886 -26.67,-59.556 -59.556,-59.556l-3335.1,0Zm6134.199,1369.772c0,296.024 239.972,536 536,536c295.992,0 536,-239.972 536,-536c0,-296.024 -240.008,-536 -536,-536c-296.024,0 -536,239.972 -536,536Zm-1786.66,0c0,296.024 239.972,536 536,536c296.024,0 536,-239.972 536,-536c0,-296.024 -239.972,-536 -536,-536c-296.024,0 -536,239.972 -536,536Zm-6134.199,-1727.104l-714.664,0c-32.886,0 -59.556,26.67 -59.556,59.556l0,595.552c0,32.886 -26.67,59.556 -59.556,59.556l-595.552,0c-32.886,0 -59.556,26.67 -59.556,59.556l0,714.664c0,32.886 26.67,59.556 59.556,59.556l595.552,0c32.886,0 59.556,26.67 59.556,59.556l0,595.552c0,33.055 26.583,59.556 59.318,59.556l715.213,0c32.694,0 59.245,-26.455 59.245,-59.556l0,-595.552c0,-32.886 26.67,-59.556 59.556,-59.556l595.552,0c32.886,0 59.556,-26.67 59.556,-59.556l0,-714.664c0,-32.886 -26.67,-59.556 -59.556,-59.556l-595.552,0c-32.886,0 -59.556,-26.67 -59.556,-59.556l0,-595.552c0,-32.886 -26.67,-59.556 -59.556,-59.556Zm1786.66,-476.444c-32.886,0 -59.556,26.67 -59.556,59.556l0,357.332c0,32.886 26.67,59.556 59.556,59.556l3335.1,0c32.886,0 59.556,-26.67 59.556,-59.556l0,-357.332c0,-32.886 -26.67,-59.556 -59.556,-59.556l-3335.1,0Zm-0,1667.548c-32.886,0 -59.556,26.67 -59.556,59.556l0,952.884c0,32.886 26.67,59.556 59.556,59.556l3335.1,0c32.886,0 59.556,-26.67 59.556,-59.556l0,-952.884c0,-32.886 -26.67,-59.556 -59.556,-59.556l-3335.1,0Zm1965.328,536c0,-98.672 79.997,-178.664 178.664,-178.664l714.664,0c98.672,0 178.664,79.997 178.664,178.664c0,98.672 -79.997,178.664 -178.664,178.664l-714.664,0c-98.672,0 -178.664,-79.997 -178.664,-178.664Zm-1667.548,0c0,-98.672 79.997,-178.664 178.664,-178.664l714.664,0c98.672,0 178.664,79.997 178.664,178.664c0,98.672 -79.997,178.664 -178.664,178.664l-714.664,0c-98.672,0 -178.664,-79.997 -178.664,-178.664Z"/></svg>