<?xml version="1.0" encoding="UTF-8" standalone="no"?><!DOCTYPE svg PUBLIC "-//W3C//DTD SVG 1.1//EN" "http://www.w3.org/Graphics/SVG/1.1/DTD/svg11.dtd"><svg width="100%" height="100%" viewBox="0 0 200 200" version="1.1" xmlns="http://www.w3.org/2000/svg" xmlns:xlink="http://www.w3.org/1999/xlink" xml:space="preserve" xmlns:serif="http://www.serif.com/" style="fill-rule:evenodd;clip-rule:evenodd;stroke-linejoin:round;stroke-miterlimit:2;"><g id="Ebene-1" serif:id="Ebene 1"><path d="M193.444,70.683c2.328,0.14 4.186,1.876 4.186,4.186l0,70.396c0,2.31 -1.876,4.186 -4.186,4.186l-185.966,0c-2.31,0 -4.186,-1.876 -4.186,-4.186l0,-70.396c0,-2.31 1.804,-4.064 4.114,-4.286l64.789,-7.615l0,-1.326c0,-1.104 0.897,-2.001 2.001,-2.001l52.646,0c1.104,0 2.001,0.897 2.001,2.001l0,1.366l64.601,7.675Zm-167.067,65.408l0,-7.307c0,-0.314 -0.255,-0.568 -0.568,-0.568l-7.409,0c1.249,3.731 4.226,6.673 7.977,7.875Zm-7.926,-21.711l7.307,0c0.314,0 0.568,-0.255 0.568,-0.568l0,-7.409c-3.731,1.249 -6.673,4.226 -7.875,7.977Zm9.633,-8.968l0,10.053c0,0.426 -0.346,0.771 -0.771,0.771l-9.914,-0c-0.519,1.619 -0.799,3.344 -0.799,5.134c0,1.739 0.264,3.416 0.755,4.995l9.958,0c0.426,0 0.771,0.346 0.771,0.771l0,10.192c1.678,0.562 3.474,0.867 5.34,0.867c1.527,0 3.007,-0.204 4.414,-0.586l0,-10.473c0,-0.426 0.346,-0.771 0.771,-0.771l10.885,0c0.491,-1.578 0.755,-3.256 0.755,-4.995c0,-1.79 -0.28,-3.515 -0.799,-5.134l-10.841,0c-0.426,0 -0.771,-0.346 -0.771,-0.771l0,-10.334c-1.407,-0.382 -2.887,-0.586 -4.414,-0.586c-1.866,0 -3.662,0.305 -5.34,0.867Zm119.518,14.963c-4.253,0 -7.706,3.453 -7.706,7.706c0,4.253 3.453,7.706 7.706,7.706c4.253,0 7.706,-3.453 7.706,-7.706c0,-4.253 -3.453,-7.706 -7.706,-7.706Zm-54.573,10.602c1.598,0 2.896,-1.298 2.896,-2.896c0,-1.598 -1.298,-2.896 -2.896,-2.896l-8.388,0c-1.598,0 -2.896,1.298 -2.896,2.896c0,1.598 1.298,2.896 2.896,2.896l8.388,0Zm22.95,0c1.598,0 2.896,-1.298 2.896,-2.896c0,-1.598 -1.298,-2.896 -2.896,-2.896l-8.388,0c-1.598,0 -2.896,1.298 -2.896,2.896c0,1.598 1.298,2.896 2.896,2.896l8.388,0Zm-75.818,-24.523l-0,7.307c0,0.314 0.255,0.568 0.568,0.568l7.409,0c-1.249,-3.731 -4.226,-6.673 -7.977,-7.875Zm110.656,-16.513c0,-1.775 -1.441,-3.215 -3.215,-3.215c-1.775,0 -3.215,1.441 -3.215,3.215l0,9.313c0,1.775 1.441,3.215 3.215,3.215c1.775,0 3.215,-1.441 3.215,-3.215l0,-9.313Zm19.181,30.434c-4.253,0 -7.706,3.453 -7.706,7.706c0,4.253 3.453,7.706 7.706,7.706c4.253,0 7.706,-3.453 7.706,-7.706c0,-4.253 -3.453,-7.706 -7.706,-7.706Zm-121.91,7.79l-7.307,-0c-0.314,0 -0.568,0.255 -0.568,0.568l0,7.409c3.731,-1.249 6.673,-4.226 7.875,-7.977Zm125.126,-38.224c0,-1.775 -1.441,-3.215 -3.215,-3.215c-1.775,0 -3.215,1.441 -3.215,3.215l0,9.313c0,1.775 1.441,3.215 3.215,3.215c1.775,0 3.215,-1.441 3.215,-3.215l0,-9.313Z"/></g></svg>