<?xml version="1.0" encoding="UTF-8" standalone="no"?><!DOCTYPE svg PUBLIC "-//W3C//DTD SVG 1.1//EN" "http://www.w3.org/Graphics/SVG/1.1/DTD/svg11.dtd"><svg width="100%" height="100%" viewBox="0 0 834 834" version="1.1" xmlns="http://www.w3.org/2000/svg" xmlns:xlink="http://www.w3.org/1999/xlink" xml:space="preserve" xmlns:serif="http://www.serif.com/" style="fill-rule:evenodd;clip-rule:evenodd;stroke-linejoin:round;stroke-miterlimit:2;"><g id="Ebene-1" serif:id="Ebene 1"><path d="M806.017,294.513c9.7,0.583 17.442,7.817 17.442,17.442l0,293.317c0,9.625 -7.817,17.442 -17.442,17.442l-774.858,0c-9.625,0 -17.442,-7.817 -17.442,-17.442l0,-293.317c0,-9.625 7.517,-16.933 17.142,-17.858l269.954,-31.729l0,-5.525c0,-4.6 3.738,-8.337 8.338,-8.337l219.358,0c4.6,0 8.337,3.738 8.337,8.337l0,5.692l269.171,31.979Zm-84.292,80.242c0,-7.396 -6.004,-13.396 -13.396,-13.396c-7.396,0 -13.396,6.004 -13.396,13.396l0,38.804c0,7.396 6.004,13.396 13.396,13.396c7.396,0 13.396,-6.004 13.396,-13.396l0,-38.804Zm-584.164,54.655c-41.545,0 -75.275,33.729 -75.275,75.275c-0,41.545 33.729,75.275 75.275,75.275c41.545,0 75.275,-33.729 75.275,-75.275c0,-41.545 -33.729,-75.275 -75.275,-75.275Zm477.448,72.153c-17.721,0 -32.108,14.387 -32.108,32.108c0,17.721 14.388,32.108 32.108,32.108c17.721,0 32.108,-14.387 32.108,-32.108c0,-17.721 -14.388,-32.108 -32.108,-32.108Zm13.396,-126.808c0,-7.396 -6.004,-13.396 -13.396,-13.396c-7.396,0 -13.396,6.004 -13.396,13.396l0,38.804c0,7.396 6.004,13.396 13.396,13.396c7.396,0 13.396,-6.004 13.396,-13.396l0,-38.804Zm79.921,126.808c-17.721,0 -32.108,14.387 -32.108,32.108c0,17.721 14.388,32.108 32.108,32.108c17.721,0 32.108,-14.387 32.108,-32.108c0,-17.721 -14.388,-32.108 -32.108,-32.108Z"/></g></svg>