<?xml version="1.0" encoding="UTF-8" standalone="no"?><!DOCTYPE svg PUBLIC "-//W3C//DTD SVG 1.1//EN" "http://www.w3.org/Graphics/SVG/1.1/DTD/svg11.dtd"><svg width="100%" height="100%" viewBox="0 0 200 200" version="1.1" xmlns="http://www.w3.org/2000/svg" xmlns:xlink="http://www.w3.org/1999/xlink" xml:space="preserve" xmlns:serif="http://www.serif.com/" style="fill-rule:evenodd;clip-rule:evenodd;stroke-linejoin:round;stroke-miterlimit:2;"><g id="Ebene-1" serif:id="Ebene 1"><path id="path24" d="M57.56,127.376c-5.231,8.809 -11.405,19.124 -15.381,25.496c-10.062,16.125 -46.525,17.749 -41.602,-18.563c2.004,-14.783 8.553,-56.779 8.553,-56.779c1.292,-9.569 6.637,-18.136 14.665,-23.503c0.282,-2.512 0.864,-7.184 1.538,-9.806c1.225,-4.768 4.058,-5.478 7.389,-6.535c2.814,-0.893 5.781,-1.376 8.773,-1.457c2.992,-0.081 6.01,0.242 8.936,0.944c4.599,1.103 7.919,1.565 9.115,7.902c0.469,2.488 1.309,6.743 1.758,8.993l0.301,1.497l1.766,-0c0.01,0.008 0.021,0.016 0.031,0.024l73.205,0c0.01,-0.008 0.021,-0.016 0.031,-0.024l1.774,0l-0.002,0.024l0.409,0l-0.039,0.145l-0.368,-0.169c0.025,-0.247 0.072,-0.744 0.146,-1.408c0.277,-2.479 0.869,-7.269 1.554,-9.937c1.225,-4.768 4.058,-5.478 7.389,-6.535c5.629,-1.786 11.857,-1.916 17.708,-0.513c4.599,1.103 7.919,1.565 9.115,7.902c0.46,2.44 1.278,6.573 1.733,8.854c8.106,5.359 13.511,13.97 14.811,23.6c0,0 6.549,41.996 8.553,56.779c4.923,36.312 -31.54,34.688 -41.602,18.563c-3.976,-6.372 -10.15,-16.688 -15.381,-25.496c-2.938,1.902 -6.364,2.914 -9.863,2.913c-9.955,-0.001 -18.147,-8.192 -18.148,-18.148l-0,-0.187c0.001,-0.06 0.001,-0.119 0.003,-0.179l-28.855,-0c0.001,0.06 0.002,0.119 0.003,0.179l0,0.187c-0.001,9.955 -8.192,18.147 -18.148,18.148c-3.502,0.002 -6.931,-1.01 -9.871,-2.913Zm62.525,-15.422l-0.008,0.545c0,6.857 5.643,12.5 12.5,12.5c2.548,0.001 5.036,-0.778 7.129,-2.23c3.112,-2.162 5.078,-5.627 5.339,-9.408c0.021,-0.287 0.032,-0.575 0.033,-0.863l-0.016,-0.545c-0.104,-2.437 -0.919,-4.791 -2.344,-6.771c-2.349,-3.254 -6.127,-5.185 -10.14,-5.184c-1.122,-0 -2.239,0.15 -3.32,0.448c-5.216,1.435 -8.936,6.102 -9.171,11.507Zm-39.811,0c-0.24,-5.519 -4.111,-10.256 -9.473,-11.589c-0.985,-0.244 -1.996,-0.367 -3.011,-0.366c-4.079,-0 -7.909,1.996 -10.246,5.339c-1.362,1.947 -2.141,4.242 -2.246,6.616l-0.008,0.545c-0.001,0.239 0.004,0.478 0.016,0.716c0.214,3.724 2.085,7.163 5.094,9.367c2.143,1.57 4.732,2.417 7.389,2.417c6.857,0 12.5,-5.643 12.5,-12.5l-0.016,-0.545Zm19.727,-26.538c-3.33,0 -6.071,2.741 -6.071,6.071c0,3.33 2.741,6.071 6.071,6.071c3.33,0 6.071,-2.741 6.071,-6.071c0,-3.33 -2.741,-6.071 -6.071,-6.071Z"/></g></svg>