<?xml version="1.0" encoding="UTF-8" standalone="no"?><!DOCTYPE svg PUBLIC "-//W3C//DTD SVG 1.1//EN" "http://www.w3.org/Graphics/SVG/1.1/DTD/svg11.dtd"><svg width="100%" height="100%" viewBox="0 0 834 834" version="1.1" xmlns="http://www.w3.org/2000/svg" xmlns:xlink="http://www.w3.org/1999/xlink" xml:space="preserve" xmlns:serif="http://www.serif.com/" style="fill-rule:evenodd;clip-rule:evenodd;stroke-linejoin:round;stroke-miterlimit:2;"><g id="Ebene-1" serif:id="Ebene 1"><path d="M68.438,631.208c-22.958,-12.521 -53.883,-56.95 -56.392,-94.362c-2.604,-38.787 12.533,-130.729 46.363,-193.129c15.258,-28.15 36.896,-62.746 64.383,-88.55c30.383,-28.521 68.858,-46.358 99.496,-54.729c56.288,-15.387 134.417,20.029 196.988,19.1c60.042,-0.892 140.896,-31.229 204.05,-15.958c30.571,7.392 63.5,24.25 88.554,51.683c31.042,33.996 58.758,76.117 74.15,109.721c25.808,56.342 38.046,134.25 33.283,178.188c-3.779,34.871 -20.292,59.554 -43.333,79.175c-21.875,18.625 -78.262,29.975 -103.35,15.396c-30.062,-17.471 -75.171,-46.888 -115.163,-68.471c-40.012,-21.596 -90.137,-39.667 -138.192,-40.196c-52.213,-0.575 -137.379,34.617 -178.321,60.471c-33.417,21.104 -61.158,44.071 -89.729,52.513c-25.221,7.45 -56.854,3.287 -82.779,-10.85l-0.008,0Zm566.167,-244.988c-19.167,0 -34.725,15.558 -34.725,34.725c0,19.167 15.558,34.725 34.725,34.725c19.167,0 34.725,-15.558 34.725,-34.725c0,-19.167 -15.558,-34.725 -34.725,-34.725Zm89.558,-34.017c-19.167,0 -34.725,15.558 -34.725,34.725c0,19.167 15.558,34.725 34.725,34.725c19.167,0 34.725,-15.558 34.725,-34.725c0,-19.167 -15.558,-34.725 -34.725,-34.725Zm-167.413,82.304c-19.167,0 -34.725,15.558 -34.725,34.725c0,19.167 15.558,34.725 34.725,34.725c19.167,0 34.725,-15.558 34.725,-34.725c0,-19.167 -15.558,-34.725 -34.725,-34.725Zm-27,-78.642c-14.512,0 -26.3,11.783 -26.3,26.3c0,14.513 11.783,26.3 26.3,26.3c14.513,0 26.3,-11.783 26.3,-26.3c0,-14.512 -11.783,-26.3 -26.3,-26.3Zm135.492,-69.533c-14.513,0 -26.3,11.783 -26.3,26.3c0,14.513 11.783,26.3 26.3,26.3c14.513,0 26.3,-11.783 26.3,-26.3c0,-14.512 -11.783,-26.3 -26.3,-26.3Zm-406.307,167.572c3.314,-3.189 6.233,-6.786 8.675,-10.71c8.286,-12.316 13.12,-27.126 13.12,-43.052c0,-42.763 -34.857,-77.482 -77.791,-77.482c-42.934,0 -77.791,34.719 -77.791,77.482c0,42.763 34.857,77.482 77.791,77.482c21.98,0 41.843,-9.1 55.996,-23.72Zm336.178,-141.272c-14.513,0 -26.3,11.783 -26.3,26.3c0,14.512 11.783,26.3 26.3,26.3c14.512,0 26.3,-11.783 26.3,-26.3c0,-14.513 -11.783,-26.3 -26.3,-26.3Z"/></g></svg>