<?xml version="1.0" encoding="UTF-8" standalone="no"?><!DOCTYPE svg PUBLIC "-//W3C//DTD SVG 1.1//EN" "http://www.w3.org/Graphics/SVG/1.1/DTD/svg11.dtd"><svg width="100%" height="100%" viewBox="0 0 200 200" version="1.1" xmlns="http://www.w3.org/2000/svg" xmlns:xlink="http://www.w3.org/1999/xlink" xml:space="preserve" xmlns:serif="http://www.serif.com/" style="fill-rule:evenodd;clip-rule:evenodd;stroke-linejoin:round;stroke-miterlimit:2;"><g id="Ebene-1" serif:id="Ebene 1"><path d="M16.425,151.49c-5.51,-3.005 -12.932,-13.668 -13.534,-22.647c-0.625,-9.309 3.008,-31.375 11.127,-46.351c3.662,-6.756 8.855,-15.059 15.452,-21.252c7.292,-6.845 16.526,-11.126 23.879,-13.135c13.509,-3.693 32.26,4.807 47.277,4.584c14.41,-0.214 33.815,-7.495 48.972,-3.83c7.337,1.774 15.24,5.82 21.253,12.404c7.45,8.159 14.102,18.268 17.796,26.333c6.194,13.522 9.131,32.22 7.988,42.765c-0.907,8.369 -4.87,14.293 -10.4,19.002c-5.25,4.47 -18.783,7.194 -24.804,3.695c-7.215,-4.193 -18.041,-11.253 -27.639,-16.433c-9.603,-5.183 -21.633,-9.52 -33.166,-9.647c-12.531,-0.138 -32.971,8.308 -42.797,14.513c-8.02,5.065 -14.678,10.577 -21.535,12.603c-6.053,1.788 -13.645,0.789 -19.867,-2.604Zm26.032,-71.571c-4.864,1.105 -8.719,4.878 -9.943,9.696c0.049,0.001 0.099,0.002 0.149,0.002l4.345,0c3.008,0 5.449,-2.442 5.449,-5.449l0,-4.248Zm2.312,-0.668l0,5.208c0,4.007 -3.253,7.26 -7.26,7.26l-5.464,0c-0.414,1.503 -0.636,3.085 -0.636,4.718c0,1.354 0.152,2.672 0.44,3.939l5.66,0c4.007,0 7.26,3.253 7.26,7.26l0,5.789c0,0.066 -0.001,0.132 -0.003,0.198c1.399,0.355 2.863,0.544 4.372,0.544c1.504,0 2.965,-0.188 4.36,-0.541c-0.002,-0.067 -0.003,-0.134 -0.003,-0.201l0,-5.789c0,-4.007 3.253,-7.26 7.26,-7.26l5.673,0c0.288,-1.267 0.44,-2.585 0.44,-3.939c0,-1.464 -0.178,-2.888 -0.513,-4.249l-5.599,0c-4.007,0 -7.26,-3.253 -7.26,-7.26l0,-5.68c-1.394,-0.353 -2.854,-0.54 -4.357,-0.54c-1.508,0 -2.971,0.189 -4.369,0.543Zm11.107,33.076c4.864,-1.105 8.719,-4.878 9.943,-9.696c-0.049,-0.001 -0.099,-0.002 -0.149,-0.002l-4.345,0c-3.008,0 -5.449,2.442 -5.449,5.449l0,4.248Zm103.782,-43.607c-3.483,0 -6.312,2.828 -6.312,6.312c0,3.483 2.828,6.312 6.312,6.312c3.483,0 6.312,-2.828 6.312,-6.312c0,-3.483 -2.828,-6.312 -6.312,-6.312Zm-7.353,23.973c-4.6,0 -8.334,3.734 -8.334,8.334c0,4.6 3.734,8.334 8.334,8.334c4.6,0 8.334,-3.734 8.334,-8.334c0,-4.6 -3.734,-8.334 -8.334,-8.334Zm-86.822,-2.908c-1.105,-4.864 -4.878,-8.719 -9.696,-9.943c-0.001,0.049 -0.002,0.099 -0.002,0.149l0,4.345c0,3.008 2.442,5.449 5.449,5.449l4.248,0Zm61.657,-4.377c-3.483,0 -6.312,2.828 -6.312,6.312c0,3.483 2.828,6.312 6.312,6.312c3.483,0 6.312,-2.828 6.312,-6.312c0,-3.483 -2.828,-6.312 -6.312,-6.312Zm15.687,-10.376c-3.483,0 -6.312,2.828 -6.312,6.312c0,3.483 2.828,6.312 6.312,6.312c3.483,0 6.312,-2.828 6.312,-6.312c0,-3.483 -2.828,-6.312 -6.312,-6.312Zm-9.207,29.25c-4.6,0 -8.334,3.734 -8.334,8.334c0,4.6 3.734,8.334 8.334,8.334c4.6,0 8.334,-3.734 8.334,-8.334c0,-4.6 -3.734,-8.334 -8.334,-8.334Zm-33.871,4.167c-4.058,0 -7.353,1.501 -7.353,3.35c0,1.849 3.295,3.35 7.353,3.35c4.058,0 7.353,-1.501 7.353,-3.35c0,-1.849 -3.295,-3.35 -7.353,-3.35Zm-67.234,-5.727c1.105,4.864 4.878,8.719 9.696,9.943c0.001,-0.049 0.002,-0.099 0.002,-0.149l0,-4.345c0,-3.008 -2.442,-5.449 -5.449,-5.449l-4.248,0Zm141.284,-18.193c-4.6,0 -8.334,3.734 -8.334,8.334c0,4.6 3.734,8.334 8.334,8.334c4.6,0 8.334,-3.734 8.334,-8.334c0,-4.6 -3.734,-8.334 -8.334,-8.334Z"/></g></svg>