<?xml version="1.0" encoding="UTF-8" standalone="no"?>
<!-- Created with Inkscape (http://www.inkscape.org/) -->

<svg
   width="48"
   height="48"
   viewBox="0 0 48 48"
   version="1.1"
   id="svg1"
   xml:space="preserve"
   inkscape:version="1.4.2 (ebf0e940, 2025-05-08)"
   sodipodi:docname="sdc.svg"
   xmlns:inkscape="http://www.inkscape.org/namespaces/inkscape"
   xmlns:sodipodi="http://sodipodi.sourceforge.net/DTD/sodipodi-0.dtd"
   xmlns="http://www.w3.org/2000/svg"
   xmlns:svg="http://www.w3.org/2000/svg"><sodipodi:namedview
     id="namedview1"
     pagecolor="#505050"
     bordercolor="#eeeeee"
     borderopacity="1"
     inkscape:showpageshadow="0"
     inkscape:pageopacity="0"
     inkscape:pagecheckerboard="0"
     inkscape:deskcolor="#505050"
     inkscape:document-units="px"
     inkscape:zoom="7.3114611"
     inkscape:cx="36.723166"
     inkscape:cy="25.439512"
     inkscape:window-width="1440"
     inkscape:window-height="779"
     inkscape:window-x="0"
     inkscape:window-y="30"
     inkscape:window-maximized="1"
     inkscape:current-layer="layer1" /><defs
     id="defs1" /><g
     inkscape:label="Ebene 1"
     inkscape:groupmode="layer"
     id="layer1"><path
       d="M 23.990827,8.5845125e-8 A 17.728093,17.728093 0 0 0 9.276823,7.8369511 L 9.2268548,7.808015 c 0,0 -3.0183396,0.8717399 -5.8882329,1.7935587 C 1.4441718,10.210075 0.28425677,17.45236 1.576623,27.889544 c 0.5271386,4.257175 1.0994488,6.423073 1.8908615,9.485866 0.8087893,3.130038 1.914562,6.274569 3.710717,8.962526 C 7.614023,46.990145 8.8428958,48 8.8428958,48 c 0,0 2.1231562,-6.25827 2.4220912,-6.522026 l 0.0027,-0.0027 0.0027,-0.0027 h 0.0027 0.0027 c 3.923827,-1.150891 8.617856,-1.337529 12.728469,-1.577909 4.108872,0.240174 8.801706,0.4277 12.72321,1.577909 h 0.0027 l 0.0027,0.0027 0.0027,0.0027 C 37.034363,41.74173 39.157517,48 39.157517,48 c 0,0 1.228873,-1.012485 1.664694,-1.664695 1.796156,-2.687955 2.904559,-5.829857 3.713348,-8.959895 0.791413,-3.062793 1.361093,-5.228691 1.888231,-9.485866 C 47.716247,17.452358 46.556334,10.207444 44.661883,9.5989426 41.791989,8.677124 38.77365,7.8080152 38.77365,7.8080152 L 38.7079,7.8474672 A 17.728093,17.728093 0 0 0 23.990827,8.5845125e-8 Z M 19.125607,9.6962536 h 9.467457 c 0.33298,0 0.599606,0.2692565 0.599605,0.6022364 v 8.565418 c 0,0.33298 -0.266625,0.599605 -0.599605,0.599605 h -9.467457 c -0.33298,0 -0.599606,-0.266625 -0.599606,-0.599605 V 10.29849 c 0,-0.3329799 0.266626,-0.6022364 0.599606,-0.6022364 z M 6.6759016,12.365551 A 3.3808868,3.3808868 0 0 1 10.055258,15.747537 3.3808868,3.3808868 0 0 1 6.6759016,19.126892 3.3808868,3.3808868 0 0 1 3.293916,15.747537 3.3808868,3.3808868 0 0 1 6.6759016,12.365551 Z m 32.9099304,2.353715 a 1.7655742,1.7655742 0 0 1 1.767259,1.764629 1.7655742,1.7655742 0 0 1 -1.767259,1.764628 1.7655742,1.7655742 0 0 1 -1.764627,-1.764628 1.7655742,1.7655742 0 0 1 1.764627,-1.764629 z m -4.289282,4.044707 a 1.7655742,1.7655742 0 0 1 1.764628,1.76463 1.7655742,1.7655742 0 0 1 -1.764628,1.767258 1.7655742,1.7655742 0 0 1 -1.764629,-1.767258 1.7655742,1.7655742 0 0 1 1.764629,-1.76463 z m 8.36292,0.05786 a 1.7655742,1.7655742 0 0 1 1.764628,1.764629 1.7655742,1.7655742 0 0 1 -1.764628,1.764628 1.7655742,1.7655742 0 0 1 -1.76463,-1.764628 1.7655742,1.7655742 0 0 1 1.76463,-1.764629 z m -4.231427,4.039448 a 1.7655742,1.7655742 0 0 1 1.767258,1.76463 1.7655742,1.7655742 0 0 1 -1.767258,1.764627 1.7655742,1.7655742 0 0 1 -1.76463,-1.764627 1.7655742,1.7655742 0 0 1 1.76463,-1.76463 z M 7.8567037,22.995403 h 2.8533873 v 2.390534 h 2.527284 v 2.856015 h -2.527284 v 2.716635 H 7.8567037 V 28.241949 H 5.2715626 v -2.856014 h 2.5851411 z"
       style="stroke-width:0.780284;stroke-linecap:square;stroke-miterlimit:2.5"
       id="path5" /></g></svg>
