<?xml version="1.0" encoding="UTF-8" standalone="no"?><!DOCTYPE svg PUBLIC "-//W3C//DTD SVG 1.1//EN" "http://www.w3.org/Graphics/SVG/1.1/DTD/svg11.dtd"><svg width="100%" height="100%" viewBox="0 0 200 200" version="1.1" xmlns="http://www.w3.org/2000/svg" xmlns:xlink="http://www.w3.org/1999/xlink" xml:space="preserve" xmlns:serif="http://www.serif.com/" style="fill-rule:evenodd;clip-rule:evenodd;stroke-linejoin:round;stroke-miterlimit:2;"><g id="Ebene-1" serif:id="Ebene 1"><path d="M196.173,61.214l0,74.568c0,1.266 -1.028,2.294 -2.294,2.294l-188.046,0c-1.266,0 -2.294,-1.028 -2.294,-2.294l0,-74.568c0,-1.266 1.028,-2.294 2.294,-2.294l188.046,0c1.266,0 2.294,1.028 2.294,2.294Zm-118.017,27.298c0,-8.884 -7.213,-16.097 -16.097,-16.097l-18.292,0c-8.884,0 -16.097,7.213 -16.097,16.097l0,18.886c0,8.884 7.213,16.097 16.097,16.097l18.292,0c8.884,0 16.097,-7.213 16.097,-16.097l0,-18.886Zm-11.983,22.865l-4.593,-2.028l2.565,-2.565l2.028,4.593Zm-27.734,-27.687l4.593,2.028l-2.565,2.565l-2.028,-4.593Zm26.897,12.449l6.099,0c0.449,0 0.814,0.365 0.814,0.814l0,1.628c0,0.449 -0.365,0.814 -0.814,0.814l-6.099,0c-0.449,0 -0.814,-0.365 -0.814,-0.814l0,-1.628c0,-0.449 0.365,-0.814 0.814,-0.814Zm-31.535,-0l6.099,0c0.449,0 0.814,0.365 0.814,0.814l0,1.628c0,0.449 -0.365,0.814 -0.814,0.814l-6.099,0c-0.449,0 -0.814,-0.365 -0.814,-0.814l0,-1.628c0,-0.449 0.365,-0.814 0.814,-0.814Zm32.372,-12.449l-2.028,4.593l-2.565,-2.565l4.593,-2.028Zm-12.105,26.365l0,6.099c0,0.449 -0.365,0.814 -0.814,0.814l-1.628,0c-0.449,0 -0.814,-0.365 -0.814,-0.814l0,-6.099c0,-0.449 0.365,-0.814 0.814,-0.814l1.628,0c0.449,0 0.814,0.365 0.814,0.814Zm0,-30.825l0,6.099c0,0.449 -0.365,0.814 -0.814,0.814l-1.628,0c-0.449,0 -0.814,-0.365 -0.814,-0.814l0,-6.099c0,-0.449 0.365,-0.814 0.814,-0.814l1.628,0c0.449,0 0.814,0.365 0.814,0.814Zm-15.487,32.147l2.028,-4.593l2.565,2.565l-4.593,2.028Zm97.788,-15.403c-6.555,0 -11.877,5.322 -11.877,11.877c0,6.555 5.322,11.877 11.877,11.877c6.555,0 11.877,-5.322 11.877,-11.877c0,-6.555 -5.322,-11.877 -11.877,-11.877Zm32.719,0c-6.555,0 -11.877,5.322 -11.877,11.877c0,6.555 5.322,11.877 11.877,11.877c6.555,0 11.877,-5.322 11.877,-11.877c0,-6.555 -5.322,-11.877 -11.877,-11.877Z"/></g></svg>