<?xml version="1.0" encoding="UTF-8" standalone="no"?><!DOCTYPE svg PUBLIC "-//W3C//DTD SVG 1.1//EN" "http://www.w3.org/Graphics/SVG/1.1/DTD/svg11.dtd"><svg width="100%" height="100%" viewBox="0 0 834 834" version="1.1" xmlns="http://www.w3.org/2000/svg" xmlns:xlink="http://www.w3.org/1999/xlink" xml:space="preserve" xmlns:serif="http://www.serif.com/" style="fill-rule:evenodd;clip-rule:evenodd;stroke-linejoin:round;stroke-miterlimit:2;"><g id="Ebene-1" serif:id="Ebene 1"><path d="M817.388,255.058l0,310.7c0,5.275 -4.283,9.558 -9.558,9.558l-783.525,0c-5.275,0 -9.558,-4.283 -9.558,-9.558l0,-310.7c0,-5.275 4.283,-9.558 9.558,-9.558l783.525,0c5.275,0 9.558,4.283 9.558,9.558Zm-491.738,113.742c0,-37.017 -30.054,-67.071 -67.071,-67.071l-76.217,0c-37.017,0 -67.071,30.054 -67.071,67.071l0,78.692c0,37.017 30.054,67.071 67.071,67.071l76.217,0c37.017,0 67.071,-30.054 67.071,-67.071l0,-78.692Zm242.554,31.092c-27.312,0 -49.487,22.175 -49.487,49.487c0,27.313 22.175,49.488 49.487,49.488c27.313,0 49.488,-22.175 49.488,-49.488c0,-27.312 -22.175,-49.487 -49.488,-49.487Zm136.329,0c-27.312,0 -49.487,22.175 -49.487,49.487c0,27.313 22.175,49.488 49.487,49.488c27.313,0 49.488,-22.175 49.488,-49.488c0,-27.312 -22.175,-49.487 -49.488,-49.487Z"/></g></svg>