<?xml version="1.0" encoding="UTF-8" standalone="no"?><!DOCTYPE svg PUBLIC "-//W3C//DTD SVG 1.1//EN" "http://www.w3.org/Graphics/SVG/1.1/DTD/svg11.dtd"><svg width="100%" height="100%" viewBox="0 0 200 200" version="1.1" xmlns="http://www.w3.org/2000/svg" xmlns:xlink="http://www.w3.org/1999/xlink" xml:space="preserve" xmlns:serif="http://www.serif.com/" style="fill-rule:evenodd;clip-rule:evenodd;stroke-linejoin:round;stroke-miterlimit:2;"><g id="Ebene-1" serif:id="Ebene 1"><path d="M69.765,132.691c-7.379,6.153 -16.871,9.857 -27.22,9.857c-23.481,0 -42.545,-19.064 -42.545,-42.545c0,-23.481 19.064,-42.545 42.545,-42.545l114.911,-0c23.481,0 42.545,19.064 42.545,42.545c0,23.481 -19.064,42.545 -42.545,42.545c-10.35,0 -19.841,-3.704 -27.22,-9.857l-60.47,0Zm88.063,-24.512c-3.858,0 -6.99,3.132 -6.99,6.99c0,3.858 3.132,6.99 6.99,6.99c3.858,0 6.99,-3.132 6.99,-6.99c0,-3.858 -3.132,-6.99 -6.99,-6.99Zm0,-29.951c-3.858,0 -6.99,3.132 -6.99,6.99c0,3.858 3.132,6.99 6.99,6.99c3.858,0 6.99,-3.132 6.99,-6.99c0,-3.858 -3.132,-6.99 -6.99,-6.99Zm-19.427,14.881c-3.858,0 -6.99,3.132 -6.99,6.99c0,3.858 3.132,6.99 6.99,6.99c3.858,0 6.99,-3.132 6.99,-6.99c0,-3.858 -3.132,-6.99 -6.99,-6.99Zm38.56,-0.098c-3.858,0 -6.99,3.132 -6.99,6.99c0,3.858 3.132,6.99 6.99,6.99c3.858,0 6.99,-3.132 6.99,-6.99c0,-3.858 -3.132,-6.99 -6.99,-6.99Zm-129.08,-10.594l-10.875,0c-0.5,0 -0.906,0.406 -0.906,0.906l0,9.062c0,0.5 -0.406,0.906 -0.906,0.906l-9.062,0c-0.5,0 -0.906,0.406 -0.906,0.906l0,10.875c0,0.5 0.406,0.906 0.906,0.906l9.062,0c0.5,0 0.906,0.406 0.906,0.906l0,9.062c0,0.503 0.405,0.906 0.903,0.906l10.883,0c0.498,0 0.901,-0.403 0.901,-0.906l0,-9.062c0,-0.5 0.406,-0.906 0.906,-0.906l9.062,0c0.5,0 0.906,-0.406 0.906,-0.906l0,-10.875c0,-0.5 -0.406,-0.906 -0.906,-0.906l-9.062,0c-0.5,0 -0.906,-0.406 -0.906,-0.906l0,-9.062c0,-0.5 -0.406,-0.906 -0.906,-0.906Z"/></g></svg>