<?xml version="1.0" encoding="UTF-8" standalone="no"?>
<!-- Created with Inkscape (http://www.inkscape.org/) -->

<svg
   width="48"
   height="48"
   viewBox="0 0 48 48"
   version="1.1"
   id="svg1"
   xml:space="preserve"
   inkscape:version="1.4.2 (ebf0e940, 2025-05-08)"
   sodipodi:docname="theme_xmb_game.svg"
   xmlns:inkscape="http://www.inkscape.org/namespaces/inkscape"
   xmlns:sodipodi="http://sodipodi.sourceforge.net/DTD/sodipodi-0.dtd"
   xmlns="http://www.w3.org/2000/svg"
   xmlns:svg="http://www.w3.org/2000/svg"><sodipodi:namedview
     id="namedview1"
     pagecolor="#505050"
     bordercolor="#eeeeee"
     borderopacity="1"
     inkscape:showpageshadow="0"
     inkscape:pageopacity="0"
     inkscape:pagecheckerboard="0"
     inkscape:deskcolor="#505050"
     inkscape:document-units="px"
     inkscape:zoom="7.3879272"
     inkscape:cx="26.597447"
     inkscape:cy="25.717633"
     inkscape:window-width="2560"
     inkscape:window-height="1317"
     inkscape:window-x="1440"
     inkscape:window-y="30"
     inkscape:window-maximized="1"
     inkscape:current-layer="layer1" /><defs
     id="defs1" /><g
     inkscape:label="Ebene 1"
     inkscape:groupmode="layer"
     id="layer1"><path
       d="M 11.756821,8.8813591 C 8.8764655,9.0477921 5.9584915,10.82348 4.1785655,14.65796 c -0.777535,1.508318 -1.711219,6.624861 -1.711219,6.624861 0,0 -2.35861502,8.891085 -2.46029802,13.455364 -0.01404,0.630601 -0.04385,1.237009 0.33417,2.075088 0.82444302,1.323869 2.42778702,2.856293 5.81321102,2.133511 2.559065,-0.389513 4.5866585,-2.680736 6.1585935,-4.916653 0.882861,-1.33099 2.093322,-3.247627 3.146581,-4.935347 h 17.080793 c 1.05318,1.687585 2.26381,3.604502 3.14658,4.935347 1.57193,2.235917 3.59953,4.52714 6.15859,4.916653 3.38542,0.722782 4.98877,-0.809642 5.81321,-2.133511 0.37802,-0.838079 0.34822,-1.444487 0.33417,-2.075088 -0.10168,-4.56428 -2.4603,-13.455364 -2.4603,-13.455364 0,0 -0.93368,-5.116543 -1.71122,-6.624861 -3.55997,-7.6692339 -11.6749,-7.1034129 -14.9255,-1.899828 H 19.104074 C 17.478659,10.156597 14.637178,8.7149261 11.756821,8.8813591 Z"
       style="fill:#ffffff;stroke-width:30.7096;stroke-linecap:round;stroke-linejoin:round;stroke-miterlimit:2.5"
       id="path2" /></g></svg>
