<?xml version="1.0" encoding="UTF-8" standalone="no"?>
<!-- Created with Inkscape (http://www.inkscape.org/) -->

<svg
   width="48"
   height="48"
   viewBox="0 0 48 48"
   version="1.1"
   id="svg1"
   xml:space="preserve"
   inkscape:version="1.4.2 (ebf0e940, 2025-05-08)"
   sodipodi:docname="theme_xmb_network.svg"
   xmlns:inkscape="http://www.inkscape.org/namespaces/inkscape"
   xmlns:sodipodi="http://sodipodi.sourceforge.net/DTD/sodipodi-0.dtd"
   xmlns="http://www.w3.org/2000/svg"
   xmlns:svg="http://www.w3.org/2000/svg"><sodipodi:namedview
     id="namedview1"
     pagecolor="#505050"
     bordercolor="#eeeeee"
     borderopacity="1"
     inkscape:showpageshadow="0"
     inkscape:pageopacity="0"
     inkscape:pagecheckerboard="0"
     inkscape:deskcolor="#505050"
     inkscape:document-units="px"
     inkscape:zoom="7.5876547"
     inkscape:cx="10.741132"
     inkscape:cy="30.971362"
     inkscape:window-width="1440"
     inkscape:window-height="777"
     inkscape:window-x="0"
     inkscape:window-y="30"
     inkscape:window-maximized="1"
     inkscape:current-layer="layer1" /><defs
     id="defs1" /><g
     inkscape:label="Ebene 1"
     inkscape:groupmode="layer"
     id="layer1"><path
       d="M 24.001311,-5.8911927e-7 A 23.99953,23.99953 0 0 0 5.7657267,8.3972405 23.99953,23.99953 0 0 0 3.2011431,12.027556 a 23.99953,23.99953 0 0 0 -3.11582509,9.977466 23.99953,23.99953 0 0 0 -0.083999,1.994966 23.99953,23.99953 0 0 0 0.1758722,2.897955 23.99953,23.99953 0 0 0 3.55681799,9.956466 23.99953,23.99953 0 0 0 2.7220815,3.520068 23.99953,23.99953 0 0 0 13.6760323,7.310508 23.99953,23.99953 0 0 0 3.869188,0.314995 23.99953,23.99953 0 0 0 0.648364,-0.0079 23.99953,23.99953 0 0 0 17.361473,-8.129493 23.99953,23.99953 0 0 0 2.685331,-3.714317 23.99953,23.99953 0 0 0 3.121074,-9.197853 23.99953,23.99953 0 0 0 0.181123,-2.950454 A 23.99953,23.99953 0 0 0 47.912056,21.94725 23.99953,23.99953 0 0 0 44.743728,11.93309 23.99953,23.99953 0 0 0 42.10827,8.2502745 23.99953,23.99953 0 0 0 24.001309,3.1310881e-5 Z M 28.182868,4.9086705 a 19.674524,19.674524 0 0 1 9.539098,5.2105405 26.129836,14.055429 0 0 1 -5.801158,1.464727 11.747821,23.285859 0 0 0 -3.73794,-6.6752675 z m -4.604175,0.165372 a 11.747821,23.076076 0 0 1 3.879687,7.0663885 26.129836,14.055429 0 0 1 -3.661816,0.139121 26.129836,14.055429 0 0 1 -3.585691,-0.133873 11.747821,23.076076 0 0 1 3.36782,-7.0716365 z m -4.732799,0.01838 a 11.747821,23.285859 0 0 0 -3.1132,6.5020215 26.129836,14.055429 0 0 1 -5.722409,-1.430602 19.674524,19.674524 0 0 1 8.835609,-5.0714195 z M 7.0860817,13.878157 a 27.796184,14.370103 0 0 0 7.5467543,2.102594 11.747821,23.285859 0 0 0 -0.682489,5.948155 H 4.3351257 a 19.674524,19.674524 0 0 1 2.750956,-8.050749 z m 33.6099613,0 a 19.674524,19.674524 0 0 1 2.748331,8.050749 h -9.439349 a 11.747821,23.285859 0 0 0 -0.83736,-5.950782 27.796184,14.370103 0 0 0 7.528378,-2.099967 z m -12.038056,2.711581 a 11.747821,23.076076 0 0 1 0.716612,5.339165 H 18.583398 a 11.747821,23.076076 0 0 1 0.577491,-5.336541 27.796184,14.370103 0 0 0 4.730174,0.209997 27.796184,14.370103 0 0 0 4.766924,-0.212621 z M 4.4217487,26.963567 h 9.5679733 a 11.747821,23.285859 0 0 0 0.769112,5.848406 27.796184,14.370103 0 0 0 -7.2711333,2.165591 19.674524,19.674524 0 0 1 -3.065952,-8.013997 z m 14.2062713,0 h 10.817453 a 11.747821,23.076076 0 0 1 -0.49874,5.029419 27.796184,14.370103 0 0 0 -4.10806,-0.157498 27.796184,14.370103 0 0 0 -5.557036,0.288747 11.747821,23.076076 0 0 1 -0.653617,-5.160668 z m 15.453129,0 h 9.276602 a 19.674524,19.674524 0 0 1 -2.693207,7.42863 27.796184,14.370103 0 0 0 -7.155636,-1.840093 11.747821,23.285859 0 0 0 0.572241,-5.588537 z m -9.336976,9.394725 a 26.129836,14.055429 0 0 1 3.215575,0.105004 11.747821,23.076076 0 0 1 -3.320574,7.307884 19.674524,19.674524 0 0 1 -0.430491,0.01048 11.747821,23.076076 0 0 1 -3.793064,-7.229133 26.129836,14.055429 0 0 1 4.328554,-0.194247 z m 7.741001,0.629989 a 26.129836,14.055429 0 0 1 5.150167,1.196982 19.674524,19.674524 0 0 1 -7.604502,4.614676 11.747821,23.285859 0 0 0 2.454335,-5.811658 z M 15.93744,37.182528 a 11.747821,23.285859 0 0 0 2.963577,5.958656 19.674524,19.674524 0 0 1 -8.318492,-4.538553 26.129836,14.055429 0 0 1 5.354915,-1.420103 z"
       style="stroke-width:38.0345;stroke-linecap:round;stroke-linejoin:round;stroke-miterlimit:2.5;fill:#ffffff"
       id="path18" /></g></svg>
